<svg id="icon_-_refresh" data-name="icon - refresh" xmlns="http://www.w3.org/2000/svg" width="20" height="20" viewBox="0 0 20 20">
  <g id="Oval_8" data-name="Oval 8">
    <circle id="Oval_8-2" data-name="Oval 8" cx="10" cy="10" r="10" transform="translate(0 0)" fill="none"/>
    <g id="Oval_8-3" data-name="Oval 8" transform="translate(0.001 0)" fill="none">
      <path d="M9.9,0A9.9,9.9,0,1,1,0,9.9,9.9,9.9,0,0,1,9.9,0Z" stroke="none"/>
      <path d="M 9.901604652404785 1.000003814697266 C 4.993245124816895 1.000003814697266 1.000003814697266 4.993563652038574 1.000003814697266 9.902313232421875 C 1.000003814697266 14.81106376647949 4.993245124816895 18.80462265014648 9.901604652404785 18.80462265014648 C 14.80996513366699 18.80462265014648 18.8032054901123 14.81106376647949 18.8032054901123 9.902313232421875 C 18.8032054901123 4.993563652038574 14.80996513366699 1.000003814697266 9.901604652404785 1.000003814697266 M 9.901604652404785 3.814697265625e-06 C 15.37010478973389 3.814697265625e-06 19.8032054901123 4.433413505554199 19.8032054901123 9.902313232421875 C 19.8032054901123 15.37120342254639 15.37010478973389 19.80462265014648 9.901604652404785 19.80462265014648 C 4.43309497833252 19.80462265014648 3.814697265625e-06 15.37120342254639 3.814697265625e-06 9.902313232421875 C 3.814697265625e-06 4.433413505554199 4.43309497833252 3.814697265625e-06 9.901604652404785 3.814697265625e-06 Z" stroke="none" fill="#fff"/>
    </g>
  </g>
  <path id="Path" d="M2.181.96A5.189,5.189,0,0,1,9.939,3.112.864.864,0,0,1,8.355,3.8a3.461,3.461,0,0,0-4.926-1.6l.639.639a.864.864,0,0,1-.611,1.475H.864A.864.864,0,0,1,0,3.457V.866A.864.864,0,0,1,1.475.255L2.181.96Z" transform="translate(5.185 5.185)" fill="#fff"/>
  <path id="Path-2" data-name="Path" d="M6.581,2.113l-.639-.639A.864.864,0,0,1,6.553,0H9.146a.864.864,0,0,1,.864.864V3.456a.864.864,0,0,1-1.475.611l-.705-.705a5.17,5.17,0,0,1-3,.958A5.186,5.186,0,0,1,.073,1.214.864.864,0,0,1,1.656.521,3.458,3.458,0,0,0,4.824,2.592a3.445,3.445,0,0,0,1.756-.478Z" transform="translate(5.546 11.234)" fill="#fff"/>
</svg>
