<svg xmlns="http://www.w3.org/2000/svg" width="16.999" height="21.015" viewBox="0 0 16.999 21.015">
  <g id="icon_-_exclaim" data-name="icon - exclaim" transform="translate(0.5 0.516)">
    <path id="Subtraction_15" data-name="Subtraction 15" d="M5949,12591h0l-3.58-1.789a8,8,0,0,1-4.421-7.154V12573l8-2,8,2v9.056a8,8,0,0,1-4.42,7.154L5949,12591Zm0-7a1.5,1.5,0,1,0,1.5,1.5A1.5,1.5,0,0,0,5949,12584Zm-.5-9a1,1,0,0,0-.992,1.1l.5,5a1,1,0,0,0,1.988,0l.5-5a1,1,0,0,0-1-1.1Z" transform="translate(-5941 -12571.001)" fill="#fcfeff" stroke="rgba(0,0,0,0)" stroke-miterlimit="10" stroke-width="1"/>
  </g>
</svg>
