<svg xmlns="http://www.w3.org/2000/svg" width="16.66" height="19.5" viewBox="0 0 16.66 19.5">
  <g id="icon_-_tree" data-name="icon - tree" transform="translate(0.5 0.5)">
    <path id="primary" d="M2.376,4.79c0-.042.37.632.37.632a.265.265,0,0,0,0-.158,7.131,7.131,0,0,1-.4-.957A4.307,4.307,0,0,1,10.9,3.584c.028.16-.948.476-.84.723.042-.059.136-.377,1.265-.723,3.468-.42,4.334,1.909,4.334,3.854a3.523,3.523,0,0,1-3.523,3.523h-9A3.132,3.132,0,0,1,2.376,4.79Z" transform="translate(0)" fill="none" stroke="#e8e8e8" stroke-width="1"/>
    <path id="secondary" d="M18.142-38.888c-.1-.084-.627.345-.739.2s.459-.842.292-.784-.159.576-.755,1-1.391.807-1.629.7.627-.924.677-1.12-.307.3-.476.2-.15-.637-.2-.588a2.448,2.448,0,0,1-.143,1.019c-.238.429-.068.29-.809.7-.15.082-1.618.885-1.87.577s.029-.726.437-1.272,1.235-.81,1.193-.914l-.364-.023v-.536l-.321.559c-.066-.006-.188.081-.354.228a3.926,3.926,0,0,1-.592-.56c-.011-.012.028-.577,0-.6s-.16.442-.225.377c-.218-.218-.418-.406-.448-.377-.051.049.83.812.773,1.419s-1,1.01-1,1.01a2.647,2.647,0,0,1-1.078.4,12.613,12.613,0,0,1-2.321-2.939,1.4,1.4,0,0,1-.063-.685c.038-.084.634-.434.67-.533l-.267.049-.121-.39-.137.446c-.015-.078-.407.316-.433.228-.109.024-.05.014-.095-.2s.1-.4.06-.433-.111.162-.138.145-.09-.459-.09-.247.1.648.09,1.1S8.942-37.329,8.8-37.348c-.7.343-2.334-.884-2.725-1.285s-.143-.6-.148-.871c0-.166-.175-.058-.216-.07l-.316-.3-.062-.637-.157.43L4.9-40.337l.7,1.061-.184.515c-.247-.071-.369-.1-.317-.033a2.206,2.206,0,0,0,.167.161c.056.051-1.683.656-1.571.754a2.452,2.452,0,0,0,.47-.08c.035-.007-.233.353-.173.34a.688.688,0,0,0,.151-.108c.018-.015.06.217.105.179.016-.013.036-.3.075-.328s.076-.062.131-.1a.417.417,0,0,1,.12-.069c.5-.108.524-.5,1.132-.2a11.93,11.93,0,0,1,1.882,1.584,3.238,3.238,0,0,1,1.627,1.655,1.717,1.717,0,0,1,.1.57v3.361s.034.814-1.249,1.573-3.533,1.085-3.883,1.465q.365.07.717.164a11.846,11.846,0,0,0,5.886,0,11.846,11.846,0,0,1,5.886,0c.332.089.675.162,1.024.219-.361-.526-2.58-.993-3.939-1.848s-1.5-1.573-1.5-1.573v-3.361a2.738,2.738,0,0,1,1.724-2.225S18.243-38.8,18.142-38.888Z" transform="translate(-3.123 46.502)" fill="#fcfeff"/>
  </g>
</svg>
