<svg id="icon_-_trendsOutline" data-name="icon - trendsOutline" xmlns="http://www.w3.org/2000/svg" width="18.881" height="20" viewBox="0 0 18.881 20">
  <path id="primary" d="M1.9,17.386c-.434.78-1.137.78-1.571,0a3.227,3.227,0,0,1,0-2.824L6.989,2.582c.434-.78,1.137-.78,1.571,0l3.657,6.575L16.985.585c.434-.78,1.137-.78,1.571,0a3.227,3.227,0,0,1,0,2.824L13,13.393c-.434.78-1.137.78-1.571,0L7.775,6.818Z" fill="#e8e8e8"/>
  <path id="primary-2" data-name="primary" d="M1.62,14.517a.705.705,0,0,1-1.342,0,2.639,2.639,0,0,1,0-2.358l5.695-10a.705.705,0,0,1,1.342,0l3.125,5.49L14.515.488a.705.705,0,0,1,1.342,0,2.639,2.639,0,0,1,0,2.358l-4.746,8.336a.705.705,0,0,1-1.342,0L6.644,5.692Z" transform="translate(1.373 4.994)" fill="#fcfeff"/>
</svg>
