<svg xmlns="http://www.w3.org/2000/svg" width="21.001" height="21.001" viewBox="0 0 21.001 21.001">
  <g id="icon_-_image" data-name="icon - image" transform="translate(0.5 0.5)">
    <path id="Subtraction_13" data-name="Subtraction 13" d="M18,20H2a2,2,0,0,1-2-2V2A2,2,0,0,1,2,0H18a2,2,0,0,1,2,2V18A2,2,0,0,1,18,20ZM7.776,7.314a1.106,1.106,0,0,0-.786.325L2.546,12.083a1.1,1.1,0,0,0-.326.786V16.2a1.113,1.113,0,0,0,1.112,1.111H16.665A1.113,1.113,0,0,0,17.777,16.2V12.869a1.1,1.1,0,0,0-.326-.786L15.229,9.861a1.111,1.111,0,0,0-1.571,0L12.221,11.3,8.562,7.639A1.1,1.1,0,0,0,7.776,7.314Zm4.445-5.093a2.223,2.223,0,1,0,2.222,2.222A2.225,2.225,0,0,0,12.221,2.221Z" transform="translate(0.002 0.001)" fill="#fcfeff" stroke="rgba(0,0,0,0)" stroke-miterlimit="10" stroke-width="1"/>
  </g>
</svg>
