<svg id="icon_-_leaves" data-name="icon - leaves" xmlns="http://www.w3.org/2000/svg" width="20" height="20" viewBox="0 0 20 20">
  <g id="Group_2" data-name="Group 2">
    <g id="Oval_8" data-name="Oval 8" transform="translate(0 0)">
      <circle id="Oval_8-2" data-name="Oval 8" cx="10" cy="10" r="10" fill="none"/>
      <g id="Oval_8-3" data-name="Oval 8" fill="none" stroke="#fff" stroke-miterlimit="10" stroke-width="1">
        <circle cx="10" cy="10" r="10" stroke="none"/>
        <circle cx="10" cy="10" r="9.5" fill="none"/>
      </g>
    </g>
  </g>
  <g id="Group_10986" data-name="Group 10986" transform="translate(5.521 2.226)">
    <path id="Subtraction_11" data-name="Subtraction 11" d="M0,13.3H0l2.665-2.38A6.1,6.1,0,0,0,4.655,5.19,5.26,5.26,0,0,0,4.18,3.771L2.722.892l.7-.434L3.988,0l.127.7,1.4,3.82A5.985,5.985,0,0,1,3.14,11.348L0,13.3Z" transform="translate(3.66 0.825)" fill="#cbd2d9" stroke="rgba(0,0,0,0)" stroke-miterlimit="10" stroke-width="1"/>
    <path id="Subtraction_12" data-name="Subtraction 12" d="M2.609,15.372a.336.336,0,0,1-.049,0,.273.273,0,0,1-.209-.152c-.19-.356.073-1.215.076-1.223L.572,10.415A5.854,5.854,0,0,1,2.086,3.436L5.266.906,5.9,0l.086,1.056L7.84,4.634a5.853,5.853,0,0,1-1.514,6.98L3.335,14.221C3.311,14.339,3.084,15.372,2.609,15.372ZM2.067,9.264l-.012,0c-.018.007-.031.03-.038.067a3.492,3.492,0,0,0,1.135,2.158l-.328,1.773a.251.251,0,0,0,.076.214.506.506,0,0,0,.252.142.558.558,0,0,0,.127.016.277.277,0,0,0,.3-.187L3.92,11.6c1.067-.478,1.528-1.095,1.578-1.393a.127.127,0,0,0-.013-.1.041.041,0,0,0-.032-.013c-.06,0-.169.085-.334.214a5.124,5.124,0,0,1-1.087.687l.247-1.34.032,0,.026,0C6.1,9.536,6.991,8.947,6.99,7.89a.642.642,0,0,1,0-.075.026.026,0,0,0,0-.016c-.012,0-.034.028-.07.075a2.992,2.992,0,0,1-2.287,1.21H4.386l.24-1.3c1.679-1.4,2.6-2.6,2.492-2.81a.057.057,0,0,0-.056-.029,9.537,9.537,0,0,0-2.1,1.526l-.112.092.257-1.394a9.947,9.947,0,0,0,.173-2.521.049.049,0,0,0-.04-.025.1.1,0,0,0-.064.036,7.97,7.97,0,0,0-.824,2.325L4.094,6.394c-.246-.483-.458-.942-.644-1.347C3.144,4.383,2.924,3.9,2.809,3.9a.041.041,0,0,0-.027.01c-.16.131.016,1.549,1.086,3.7L3.633,8.887l-.072-.031-.18-.078A3.6,3.6,0,0,1,1.742,6.624c-.025-.083-.04-.133-.052-.133s-.009.008-.013.026a.9.9,0,0,1-.032.093c-.134.356-.541,1.439,1.808,2.817l.073.04-.262,1.413a7.618,7.618,0,0,1-.871-1.2C2.235,9.431,2.131,9.264,2.067,9.264Z" transform="translate(0)" fill="#fff" stroke="rgba(0,0,0,0)" stroke-miterlimit="10" stroke-width="1"/>
  </g>
</svg>
