<svg id="icon_-_user" data-name="icon - user" xmlns="http://www.w3.org/2000/svg" width="20" height="20" viewBox="0 0 20 20">
  <g id="Oval_8" data-name="Oval 8">
    <circle id="Oval_8-2" data-name="Oval 8" cx="10" cy="10" r="10" fill="none"/>
    <g id="Oval_8-3" data-name="Oval 8" fill="none" stroke="#fff" stroke-miterlimit="10" stroke-width="1">
      <circle cx="10" cy="10" r="10" stroke="none"/>
      <circle cx="10" cy="10" r="9.5" fill="none"/>
    </g>
  </g>
  <path id="Oval_4" data-name="Oval 4" d="M3.086,5.926A3.027,3.027,0,0,1,0,2.963,3.027,3.027,0,0,1,3.086,0,3.027,3.027,0,0,1,6.173,2.963,3.027,3.027,0,0,1,3.086,5.926Z" transform="translate(6.914 3.704)" fill="#fff"/>
  <path id="secondary" d="M9.877,4.741a1.211,1.211,0,0,0,1.235-1.185V2.963A3.027,3.027,0,0,0,8.025,0H3.086A3.027,3.027,0,0,0,0,2.963v.593A1.211,1.211,0,0,0,1.235,4.741Z" transform="translate(4.444 10.815)" fill="#fff"/>
</svg>
