<svg id="icon_-_pages" data-name="icon - pages" xmlns="http://www.w3.org/2000/svg" width="20" height="19.996" viewBox="0 0 20 19.996">
  <path id="Exclusion_1" data-name="Exclusion 1" d="M6035,12606a10.442,10.442,0,0,1-1.11-.063V12596h10v-1.111H6032.78v10.859A10,10,0,1,1,6045,12596v.134a.336.336,0,0,1,0,.063v.077a.4.4,0,0,1,0,.061.7.7,0,0,1,0,.091v.038c0,.014,0,.026,0,.039v.038c0,.019,0,.036,0,.054a9.931,9.931,0,0,1-1.012,3.831l-.023.044-.011.021c-.016.03-.031.06-.047.089A9.97,9.97,0,0,1,6035,12606Zm-4.445-13.33v10h1.666l0-1.113h-.556v-7.778h7.773v.561h1.111v-1.667Z" transform="translate(-6024.999 -12586.001)" fill="#fcfeff"/>
</svg>
