<svg xmlns="http://www.w3.org/2000/svg" width="16.583" height="18.245" viewBox="0 0 16.583 18.245">
  <g id="icon_-_userOutline" data-name="icon - userOutline" transform="translate(0.5 0.25)">
    <path id="Subtraction_5" data-name="Subtraction 5" d="M3.9,7.77a3.885,3.885,0,1,1,3.9-3.885A3.894,3.894,0,0,1,3.9,7.77Zm0-6.92A3.034,3.034,0,1,0,6.938,3.886,3.042,3.042,0,0,0,3.893.851Z" transform="translate(3.897)" fill="#fcfeff" stroke="#fcfeff" stroke-width="0.5"/>
    <path id="Subtraction_6" data-name="Subtraction 6" d="M15.583,9.066H0V7.792a7.792,7.792,0,1,1,15.584,0V9.065ZM7.814.135A7.562,7.562,0,0,0,.26,7.689V8.924H15.368V7.689A7.563,7.563,0,0,0,7.814.135Z" transform="translate(0 8.43)" fill="#fcfeff" stroke="#fcfeff" stroke-width="1"/>
  </g>
</svg>
