<svg xmlns="http://www.w3.org/2000/svg" width="21" height="21" viewBox="0 0 21 21">
  <g id="icon_-_quote" data-name="icon - quote" transform="translate(0.5 0.5)">
    <path id="Subtraction_7" data-name="Subtraction 7" d="M16.668,20a1.1,1.1,0,0,1-.786-.326l-2.548-2.547-2.548,2.547a1.11,1.11,0,0,1-1.571,0L6.668,17.126,4.12,19.673a1.11,1.11,0,0,1-1.571,0L.327,17.451A1.1,1.1,0,0,1,0,16.665V2.221A2.225,2.225,0,0,1,2.223,0H17.779A2.225,2.225,0,0,1,20,2.221V16.665a1.1,1.1,0,0,1-.325.786l-2.222,2.222A1.1,1.1,0,0,1,16.668,20ZM4.334,8.887a1,1,0,0,0-1,1v.222a1,1,0,0,0,1,1H15.668a1,1,0,0,0,1-1V9.887a1,1,0,0,0-1-1Zm0-4.444a1,1,0,0,0-1,1v.222a1,1,0,0,0,1,1H15.668a1,1,0,0,0,1-1V5.443a1,1,0,0,0-1-1Z" transform="translate(-0.001 0.001)" fill="#fcfeff" stroke="rgba(0,0,0,0)" stroke-miterlimit="10" stroke-width="1"/>
  </g>
</svg>
