<svg id="icon_-_gear" data-name="icon - gear" xmlns="http://www.w3.org/2000/svg" width="20" height="20.001" viewBox="0 0 20 20.001">
  <path id="primary" d="M7.555,20h0a10.287,10.287,0,0,1-2.9-1.2A2.574,2.574,0,0,0,1.2,15.343a10.235,10.235,0,0,1-1.2-2.9A2.567,2.567,0,0,0,1.766,10,2.57,2.57,0,0,0,0,7.556a10.232,10.232,0,0,1,1.2-2.9,2.584,2.584,0,0,0,1.158.274,2.573,2.573,0,0,0,2.3-3.73A10.232,10.232,0,0,1,7.556,0,2.569,2.569,0,0,0,10,1.766,2.567,2.567,0,0,0,12.443,0a10.235,10.235,0,0,1,2.9,1.2A2.574,2.574,0,0,0,18.8,4.657a10.258,10.258,0,0,1,1.2,2.9,2.574,2.574,0,0,0,0,4.888,10.261,10.261,0,0,1-1.2,2.9,2.584,2.584,0,0,0-1.158-.274,2.573,2.573,0,0,0-2.3,3.73,10.261,10.261,0,0,1-2.9,1.2,2.575,2.575,0,0,0-4.889,0ZM10,5.883A4.117,4.117,0,1,0,14.116,10,4.122,4.122,0,0,0,10,5.883Z" fill="#fcfeff"/>
</svg>
