<svg id="icon_-_building" data-name="icon - building" xmlns="http://www.w3.org/2000/svg" width="20" height="19.856" viewBox="0 0 20 19.856">
  <g id="Group_10987" data-name="Group 10987" transform="translate(0 0)">
    <g id="Group_2" data-name="Group 2" transform="translate(0 0)">
      <g id="Oval_8" data-name="Oval 8">
        <circle id="Oval_8-2" data-name="Oval 8" cx="9.928" cy="9.928" r="9.928" transform="translate(0.144 0)" fill="none"/>
        <g id="Oval_8-3" data-name="Oval 8" transform="translate(0 0)" fill="none">
          <path d="M9.856,0A9.856,9.856,0,1,1,0,9.856,9.856,9.856,0,0,1,9.856,0Z" stroke="none"/>
          <path d="M 9.855759620666504 1 C 4.97268009185791 1 1 4.972909927368164 1 9.856280326843262 C 1 14.73965072631836 4.97268009185791 18.71256065368652 9.855759620666504 18.71256065368652 C 14.73884010314941 18.71256065368652 18.71151924133301 14.73965072631836 18.71151924133301 9.856280326843262 C 18.71151924133301 4.972909927368164 14.73884010314941 1 9.855759620666504 1 M 9.855759620666504 0 C 15.2989501953125 0 19.71151924133301 4.412810325622559 19.71151924133301 9.856280326843262 C 19.71151924133301 15.29975032806396 15.2989501953125 19.71256065368652 9.855759620666504 19.71256065368652 C 4.412569999694824 19.71256065368652 0 15.29975032806396 0 9.856280326843262 C 0 4.412810325622559 4.412569999694824 0 9.855759620666504 0 Z" stroke="none" fill="#fff"/>
        </g>
      </g>
    </g>
    <path id="secondary" d="M3.645,5.148H0V0H3.645a2,2,0,0,1,2,2V3.148A2,2,0,0,1,3.645,5.148ZM3.6,3V4.29H4.827V3ZM1.553,3V4.29H2.781V3ZM3.6.858V2.145H4.827V.858Zm-2.046,0V2.145H2.781V.858Z" transform="translate(10.768 10.779) rotate(-90)" fill="#cbd2d9"/>
    <path id="Subtraction_1" data-name="Subtraction 1" d="M15.165,5.7H.8a1.1,1.1,0,0,1-.757-.215A.147.147,0,0,1,0,5.366L.8.3C.825.13,1.175,0,1.6,0h1.6c.421,0,.771.13.8.3L4.3,2.28l2.318-.92a1.57,1.57,0,0,1,.557-.093c.4,0,.805.119.805.317V2.4L10.61,1.36a1.575,1.575,0,0,1,.558-.093c.4,0,.8.119.8.317V2.4L14.6,1.36a1.575,1.575,0,0,1,.558-.093c.4,0,.8.119.8.317v3.8C15.963,5.561,15.605,5.7,15.165,5.7ZM10.726,3.066V5.273h1.357V3.066Zm-2.262,0V5.273H9.821V3.066Zm-2.262,0V5.273H7.559V3.066Z" transform="translate(2.033 7.965)" fill="#f5f7fa" stroke="rgba(0,0,0,0)" stroke-miterlimit="10" stroke-width="1"/>
  </g>
</svg>
