<svg xmlns="http://www.w3.org/2000/svg" width="20.999" height="20.999" viewBox="0 0 20.999 20.999">
  <g id="icon_-_check" data-name="icon - check" transform="translate(0.5 0.5)">
    <path id="Subtraction_14" data-name="Subtraction 14" d="M5986,12591a10,10,0,1,1,7.07-2.929A10.013,10.013,0,0,1,5986,12591Zm-5-10a.992.992,0,0,0-.707.291,1,1,0,0,0,0,1.416l3,3a1,1,0,0,0,1.416,0l7-7a1,1,0,0,0-1.416-1.416l-6.291,6.295-2.294-2.295A.992.992,0,0,0,5981,12581Z" transform="translate(-5976 -12571.001)" fill="#fcfeff" stroke="rgba(0,0,0,0)" stroke-miterlimit="10" stroke-width="1"/>
  </g>
</svg>
