<svg xmlns="http://www.w3.org/2000/svg" width="19.699" height="12.819" viewBox="0 0 19.699 12.819">
  <g id="icon_-_usersOutline" data-name="icon - usersOutline" transform="translate(0.5 0.5)">
    <path id="Subtraction_3" data-name="Subtraction 3" d="M18.7,9.418H14.473v-.13a5.074,5.074,0,0,0-1.5-3.619A3.373,3.373,0,0,1,18.7,8.083V9.417Zm-14.443,0H0V8.083a3.373,3.373,0,0,1,5.745-2.4,5.075,5.075,0,0,0-1.489,3.6v.129Zm11.07-5.382A2.018,2.018,0,1,1,17.35,2.019,2.023,2.023,0,0,1,15.326,4.036Zm-11.953,0A2.018,2.018,0,1,1,5.4,2.019,2.023,2.023,0,0,1,3.373,4.036Z" transform="translate(0 1.599)" fill="none" stroke="#e8e8e8" stroke-width="1"/>
    <path id="Subtraction_4" data-name="Subtraction 4" d="M2.635,5.255A2.628,2.628,0,1,1,5.269,2.628,2.634,2.634,0,0,1,2.635,5.255Zm0-4.679A2.052,2.052,0,1,0,4.692,2.628,2.057,2.057,0,0,0,2.633.576Z" transform="translate(6.716)" fill="none" stroke="#fcfeff" stroke-width="1"/>
    <path id="Subtraction_2" data-name="Subtraction 2" d="M10.539,6.13H0V5.269a5.27,5.27,0,0,1,10.539,0v.86ZM5.285.091A5.114,5.114,0,0,0,.176,5.2v.834H10.393V5.2A5.114,5.114,0,0,0,5.285.091Z" transform="translate(4.081 5.689)" fill="none" stroke="#fcfeff" stroke-width="1"/>
  </g>
</svg>
