<?xml version="1.0" encoding="UTF-8"?>
<svg width="358px" height="359px" viewBox="0 0 358 359" version="1.1" xmlns="http://www.w3.org/2000/svg" xmlns:xlink="http://www.w3.org/1999/xlink">
    <title>myLogo Copy</title>
    <defs>
        <filter id="filter-1">
            <feColorMatrix in="SourceGraphic" type="matrix" values="0 0 0 0 0.000000 0 0 0 0 0.000000 0 0 0 0 0.000000 0 0 0 1.000000 0"></feColorMatrix>
        </filter>
        <filter id="filter-2">
            <feColorMatrix in="SourceGraphic" type="matrix" values="0 0 0 0 1.000000 0 0 0 0 1.000000 0 0 0 0 1.000000 0 0 0 1.000000 0"></feColorMatrix>
        </filter>
    </defs>
    <g id="Home" stroke="none" stroke-width="1" fill="none" fill-rule="evenodd">
        <g id="Desktop-HD-Copy" transform="translate(-404.000000, -1601.000000)">
            <g id="myLogo-Copy" transform="translate(399.000000, 1573.000000)">
                <g id="icon---tree" transform="translate(4.000000, 28.000000)" fill="#0A6000">
                    <g transform="translate(0.045389, 0.197413)">
                        <path d="M358.910984,136.172708 C356.442195,134.680468 343.431677,142.301549 340.666633,139.725659 C337.901589,137.149769 351.998374,124.767733 347.875497,125.798089 C343.752619,126.828445 343.950122,136.03059 329.23614,143.562847 C314.522158,151.095104 294.895285,157.899006 289.019568,155.998177 C283.14385,154.097348 304.498874,139.583541 305.733269,136.101649 C306.967663,132.619756 298.154087,141.431076 293.981833,139.6546 C289.80958,137.878124 290.27865,128.33845 289.044255,129.208923 C289.66306,135.35485 288.45969,141.525239 285.513887,147.311211 C279.638169,154.932292 283.835111,152.46299 265.541384,159.746541 C261.838201,161.203251 225.596379,175.468351 219.375031,169.996806 C213.153682,164.525261 220.090979,157.099592 230.163638,147.400034 C240.236297,137.700477 260.653182,133.010581 259.616291,131.163046 L250.629899,130.754457 L250.629899,121.232547 L242.705086,131.163046 C241.075686,131.056457 238.063763,132.601991 233.965573,135.213411 C228.627452,132.271103 223.72933,128.93706 219.350343,125.265146 C219.078776,125.051969 220.041604,115.014881 219.350343,114.606292 C218.659082,114.197703 215.40028,122.458315 213.795567,121.303606 C208.413607,117.430888 203.47603,114.091114 202.735393,114.606292 C201.47631,115.476765 223.226341,129.031275 221.819132,139.814483 C220.411922,150.597691 197.131242,157.756888 197.131242,157.756888 C189.090797,161.500102 180.00529,163.925962 170.517697,164.862791 C147.913354,149.607967 138.536502,150.059496 123.15328,130.701162 C121.236462,126.801079 120.701879,122.618542 121.597943,118.532303 C122.536083,117.040064 137.250065,110.822399 138.138829,109.063688 L131.547162,109.934161 L128.559928,103.005905 L125.177687,110.928987 C124.807368,109.543336 115.129716,116.542651 114.487831,114.979352 C111.796851,115.405706 113.253436,115.228058 112.142481,111.4264 C111.031526,107.624742 114.61127,104.320497 113.623754,103.73426 C112.636239,103.148023 110.883399,106.612151 110.216826,106.31015 C109.550253,106.008149 107.994916,98.1561265 107.994916,101.922255 C107.994916,105.688384 110.463704,113.433818 110.216826,121.463488 C109.969947,129.493159 131.782398,163.867965 128.276717,163.530434 C110.995194,169.623746 99.9797463,163.121845 90.3267814,155.998177 C80.6738165,148.874509 81.5779905,140.986957 81.4545511,136.172708 C81.3311116,131.358458 78.3507839,143.776024 77.3385804,143.562847 C74.6844136,143.268909 72.4169363,141.444554 70.5361487,138.089783 C68.6553611,134.735013 67.8121643,131.010841 68.0065581,126.917269 C66.5485366,130.662583 66.5485366,134.961655 68.0065581,139.814483 C70.1935903,147.093726 78.119754,146.873871 74.5982247,148.856745 C69.3344497,152.753225 57.7630484,148.412703 39.884021,135.835177 C34.7377877,133.452305 52.8600866,144.162575 32.05796,136.794474 C33.361593,137.799219 34.7377877,138.753914 36.1808376,139.6546 C73.1295242,151.776378 38.9044841,151.819609 26.4266712,149.70909 C13.9488582,147.598571 8.25466233,137.993315 8.90998454,139.814483 C9.56530675,141.635651 8.90998454,142.99414 8.90998454,144.80638 C8.90998454,146.01454 6.25819338,146.01454 0.954611066,144.80638 C16.5158792,150.321504 31.4508081,154.052103 45.7593978,155.998177 C67.2222823,158.917288 84.2563019,165.228072 98.3549948,175.734823 C112.453688,186.241574 144.146544,190.001052 152.027193,203.035926 C153.640376,206.286409 154.47516,209.710335 154.495982,213.161838 L154.495982,272.869188 C154.495982,272.869188 153.673052,301.513655 152.027193,358.802587 L224.686848,356.021424 C226.314118,300.5866 227.127754,272.869188 227.127754,272.869188 L227.127754,213.161838 C230.09677,195.345741 232.951241,182.252527 256.184674,175.734823 C256.184674,175.734823 361.40446,137.736006 358.910984,136.172708 Z" id="secondary" fill-rule="nonzero" transform="translate(179.954611, 229.852372) rotate(-180.000000) translate(-179.954611, -229.852372) "></path>
                        <path d="M74.0597086,76.4647978 C74.0597086,75.8023141 81.2434106,86.4335991 81.2434106,86.4335991 C81.5553363,85.6221916 81.5553363,84.7528064 81.2434106,83.9413988 C78.2070887,79.0695054 75.611503,74.0244422 73.4772462,68.8462359 C73.4103566,33.5041489 106.708673,4.02359998 150.056532,1.04703078 C193.404391,-1.92953843 232.320972,22.5922272 239.556671,57.4420534 C240.100302,59.9658005 221.150861,64.9502012 223.247726,68.8462359 C224.063173,67.9156042 225.888222,62.8996566 247.80822,57.4420534 C315.140865,50.817217 331.954611,87.5535119 331.954611,118.232814 C331.954611,148.923144 301.330667,173.802587 263.554119,173.802587 L88.8154208,173.802587 C58.087877,173.82202 32.1708908,155.215254 28.4149637,130.438843 C24.6590366,105.662433 44.2445542,82.5029293 74.0597086,76.4647978 Z" id="primary" stroke="#0A6000" stroke-width="2"></path>
                    </g>
                </g>
                <g id="Group-Copy-2" transform="translate(73.992238, 51.495379)">
                    <g filter="url(#filter-1)" id="Group-2">
                        <g>
                            <path d="M104.847622,0.227020231 C109.895314,0.819744989 114.821315,2.18765679 119.451825,4.28249204 C117.637401,9.33043105 119.270988,14.9726431 123.501636,18.2700439 C127.72282,21.579051 133.593365,21.7980243 138.04963,18.8126891 C141.202269,22.7989961 143.721238,27.2477158 145.517713,32.0019776 C141.073469,34.1048488 138.32459,38.6033911 138.404277,43.4390252 L129.268545,43.4399046 C126.463858,29.3702124 114.046144,18.767098 99.1519397,18.767098 C90.6307764,18.767098 82.9202004,22.2376344 77.3565986,27.8423204 C71.7817876,33.3912046 68.3259727,41.0674593 68.3109526,49.5537795 C68.2845915,64.4478505 78.8655547,76.884238 92.9301058,79.713944 L92.9301058,79.713944 L92.8965729,98.9533037 C87.9531762,98.3403262 83.1299016,96.985411 78.589577,94.9337741 C80.398472,89.8854842 78.7663164,84.2463769 74.5407312,80.9449879 C70.315146,77.643599 64.4486901,77.4241488 59.9879673,80.4006038 C56.8367996,76.4133072 54.3179647,71.9648244 52.5198838,67.2113154 C57.3722703,64.9222397 60.208736,59.7783499 59.5550237,54.4531902 C58.9013115,49.1280305 54.9049385,44.8232811 49.6430256,43.7763419 C50.2362156,38.7286055 51.6043403,33.802512 53.6991568,29.1717654 C58.7451199,30.9901326 64.3883215,29.3571567 67.6837627,25.1250334 C70.9926862,20.9024285 71.2130933,15.0315519 68.2300805,10.5730313 C72.2150434,7.42318258 76.6617944,4.90655222 81.4136249,3.11182917 C83.2557238,7.01298783 86.9895005,9.67938113 91.2773378,10.1557796 C95.565175,10.6321781 99.7933656,8.8503961 102.44717,5.44875301 C103.64265,3.91861187 104.464594,2.13062725 104.847622,0.227020231 Z M120.885453,71.1735764 C125.078955,66.973 128.062433,61.564059 129.268493,55.5141476 L129.268493,55.5141476 L148.390377,55.5144229 C147.788006,60.5316603 146.423693,65.427841 144.344387,70.033916 L144.347026,70.0270202 L144.050533,69.9250557 C139.182275,68.3233239 133.825072,69.8757757 130.567255,73.8323449 L130.366399,74.0827541 C127.065129,78.3081866 126.843802,84.1737216 129.817269,88.6356233 C125.829739,91.7868311 121.381218,94.3058949 116.627778,96.104437 C114.785679,92.2032783 111.051902,89.536885 106.764065,89.0604865 C106.169761,88.9944567 105.576604,88.9718077 104.988625,88.9908401 L105.004378,79.7353765 C111.056471,78.5400706 116.47074,75.5661845 120.678782,71.3801176 Z" id="Combined-Shape" fill="#000000" fill-rule="nonzero"></path>
                            <path d="M74.8514641,154.314205 C77.2185722,157.921027 81.2871022,160.04183 85.5995124,159.916841 C88.246906,159.840109 90.7535957,158.923738 92.7930898,157.362748 L92.7743327,167.780378 C78.6998051,170.560242 68.074837,182.95912 68.0484266,197.853225 C68.0184571,214.813751 81.743345,228.587309 98.7038708,228.617376 C98.8145993,228.617572 98.9251919,228.617181 99.0356458,228.616207 L99.2831781,228.617375 C114.177289,228.617375 126.594942,218.014393 129.399731,203.944832 L129.399731,203.944832 L148.108579,203.945591 C147.781363,206.608369 147.238529,209.244169 146.483542,211.826741 L146.484785,211.819732 L146.183579,211.760952 C141.135697,210.848987 136.041527,213.134225 133.365851,217.510969 L133.205077,217.781536 C130.524001,222.425295 131.121153,228.26455 134.686659,232.269202 C131.176498,235.944699 127.121857,239.058362 122.664985,241.500952 C120.297876,237.89413 116.229346,235.773327 111.916936,235.898317 C107.604526,236.023306 103.66546,238.376198 101.5109,242.114075 C100.540008,243.795704 99.9749024,245.68068 99.860533,247.619068 C94.7795958,247.732382 89.7114973,247.063395 84.8340445,245.635576 C85.9227493,240.384667 83.5216656,235.027591 78.8777389,232.346419 C74.2338123,229.665246 68.3939068,230.264385 64.3908379,233.832686 C60.7154128,230.322751 57.6019819,226.268115 55.1598391,221.811111 C59.6464248,218.868991 61.7393951,213.380401 60.3509257,208.198045 C58.9624564,203.015688 54.4058705,199.30902 49.0494604,199.004586 C48.9343684,193.923418 49.6035989,188.854859 51.0335534,183.977636 C56.2834774,185.076045 61.6444934,182.673579 64.3188658,178.024006 C67.0079141,173.381982 66.4091081,167.537565 62.8346196,163.53759 C66.3424269,159.863796 70.3956552,156.752789 74.8514641,154.314205 Z M104.88291,148.561732 C107.518161,148.889757 110.126572,149.430173 112.682404,150.179581 C111.588175,155.430913 113.991108,160.790863 118.639493,163.467382 C123.280121,166.156711 129.12401,165.556531 133.121428,161.980057 C136.798173,165.488807 139.91177,169.543659 142.352427,174.001632 C137.872622,176.946775 135.785449,182.43214 137.174379,187.610223 C137.596692,189.184651 138.31144,190.622813 139.252199,191.870658 L129.399784,191.870589 C126.95304,179.59652 117.190392,169.960658 104.849887,167.70105 Z" id="Combined-Shape" fill="#000000" fill-rule="nonzero"></path>
                            <path d="M42.8177926,78.4513399 C43.3034924,82.2886697 45.7475296,85.5946083 49.2743332,87.1848106 C52.8011369,88.7750128 56.9059247,88.4218772 60.1181656,86.2519137 C61.5645901,85.2762908 62.7640257,83.9775356 63.6210662,82.4589545 C67.7639752,84.3581812 71.5871428,86.88527 74.9556773,89.9510584 C72.001326,93.7575006 71.8241975,99.0228838 74.5165596,103.004418 C77.1976132,106.993242 82.146879,108.800709 86.7815001,107.483562 C88.0599,110.938876 88.9002067,114.537894 89.2854217,118.196799 L72.6538818,118.19691 C70.1341654,105.826861 58.9781564,96.5046211 45.5972819,96.5046211 C30.3600109,96.5046211 18.0077622,108.592933 18.0077622,123.504621 C18.0077622,138.416309 30.3600109,150.504621 45.5972819,150.504621 C58.9780731,150.504621 70.1340264,141.182497 72.6538347,128.812563 L72.6538347,128.812563 L80.1612321,128.812332 C80.0738023,129.117888 79.9988842,129.429007 79.9370774,129.745126 C79.0140243,134.466203 81.2232814,139.23882 85.4180024,141.585468 C83.5028437,145.72713 80.9636272,149.55235 77.8889876,152.927602 L77.8939479,152.92234 L77.6427374,152.734809 C73.9451809,150.048476 68.9694262,149.895139 65.0999591,152.348279 L64.8318212,152.523658 C60.8375769,155.21781 59.0151677,160.161685 60.3102756,164.789813 C56.029504,166.377896 51.531346,167.299319 46.973613,167.521756 C46.4879132,163.684426 44.043876,160.378487 40.5170724,158.788285 C36.9902687,157.198083 32.8854809,157.551218 29.6732401,159.721182 C28.2268155,160.696805 27.0273799,161.99556 26.1703394,163.514141 C22.0284093,161.613161 18.2054986,159.086242 14.8357283,156.022037 C17.7854582,152.213769 17.962944,146.95143 15.2760127,142.967891 C12.5890815,138.984351 7.64343856,137.177607 3.00748564,138.485946 C1.42854303,134.213735 0.517705758,129.722562 0.306947905,125.170086 C5.08573725,124.5564 8.93907695,120.950228 9.86418799,116.225885 C10.789299,111.501542 8.57742005,106.725126 4.37817842,104.379187 C6.2902042,100.235784 8.82972532,96.4101057 11.9071932,93.0370525 C15.7072932,95.9816247 20.9782881,96.1460904 24.9694212,93.4446204 C28.9694102,90.7549943 30.792522,85.8063079 29.4883251,81.1784293 C33.7665273,79.5907973 38.2624975,78.6709621 42.8177926,78.4513399 Z" id="Combined-Shape" fill="#000000" fill-rule="nonzero"></path>
                        </g>
                    </g>
                    <g filter="url(#filter-2)" id="Group-Copy">
                        <g transform="translate(44.950461, 49.345656)">
                            <path id="Line" d="M54.0967889,-14.7374996 C62.4494448,-14.7227161 69.208724,-7.99501355 69.1940616,0.28924472 C69.1809713,7.68528383 63.7730671,13.8215498 56.669811,15.0418404 L56.4586341,133.791678 C63.5580202,135.036703 68.9446757,141.192304 68.9315847,148.58869 C68.9169223,156.872948 62.1338706,163.576682 53.7812148,163.561899 C45.4285589,163.547115 38.6692797,156.819413 38.6839421,148.535155 C38.6970324,141.139115 44.1049366,135.002849 51.2081927,133.782559 L51.4193696,15.0327212 C44.3199835,13.7876966 38.933328,7.63209542 38.946419,0.235709069 C38.9610814,-8.0485492 45.7441331,-14.7522831 54.0967889,-14.7374996 Z" fill="#FFFFFF" fill-rule="nonzero"></path>
                            <path id="Line-3" d="M137.669131,-14.9926066 C145.953402,-14.9926066 152.669131,-8.2214305 152.669131,0.131238447 C152.669131,8.4839074 145.953402,15.2550834 137.669131,15.2550834 C130.273081,15.2550834 124.127253,9.85804833 122.894392,2.75696316 L68.9762181,2.75696316 C67.7433573,9.85804833 61.5975294,15.2550834 54.2014787,15.2550834 C45.9172075,15.2550834 39.2014787,8.4839074 39.2014787,0.131238447 C39.2014787,-8.2214305 45.9172075,-14.9926066 54.2014787,-14.9926066 C61.5978767,-14.9926066 67.7439344,-9.59506466 68.9763917,-2.4934861 L122.894218,-2.4934861 C124.126676,-9.59506466 130.272733,-14.9926066 137.669131,-14.9926066 Z" fill="#FFFFFF" fill-rule="nonzero"></path>
                            <path id="Line-3-Copy" d="M137.80037,133.438077 C146.084641,133.438077 152.80037,140.209253 152.80037,148.561922 C152.80037,156.914591 146.084641,163.685767 137.80037,163.685767 C130.403972,163.685767 124.257914,158.288225 123.025457,151.186647 L69.1076302,151.186647 C67.8751728,158.288225 61.7291151,163.685767 54.3327172,163.685767 C46.0484459,163.685767 39.3327172,156.914591 39.3327172,148.561922 C39.3327172,140.209253 46.0484459,133.438077 54.3327172,133.438077 C61.7291151,133.438077 67.8751728,138.835619 69.1076302,145.937198 L123.025457,145.937198 C124.257914,138.835619 130.403972,133.438077 137.80037,133.438077 Z" fill="#FFFFFF" fill-rule="nonzero"></path>
                            <path id="Line-3-Copy-2" d="M83.4676525,59.4195931 C91.7519237,59.4195931 98.4676525,66.1907691 98.4676525,74.5434381 C98.4676525,82.896107 91.7519237,89.6672831 83.4676525,89.6672831 C76.0716018,89.6672831 69.9257739,84.270248 68.6929131,77.1691628 L14.7747394,77.1691628 C13.5418786,84.270248 7.3960507,89.6672831 -5.21015157e-14,89.6672831 C-8.28427125,89.6672831 -15,82.896107 -15,74.5434381 C-15,66.1907691 -8.28427125,59.4195931 5.21015157e-14,59.4195931 C7.39639793,59.4195931 13.5424556,64.817135 14.774913,71.9187135 L68.6927395,71.9187135 C69.9251969,64.817135 76.0712546,59.4195931 83.4676525,59.4195931 Z" fill="#FFFFFF" fill-rule="nonzero"></path>
                        </g>
                    </g>
                </g>
            </g>
        </g>
    </g>
</svg>