<?xml version="1.0" encoding="UTF-8"?>
<svg width="199px" height="249px" viewBox="0 0 199 249" version="1.1" xmlns="http://www.w3.org/2000/svg" xmlns:xlink="http://www.w3.org/1999/xlink">
    <title>Group Copy 2</title>
    <defs>
        <filter id="filter-1">
            <feColorMatrix in="SourceGraphic" type="matrix" values="0 0 0 0 0.109804 0 0 0 0 0.596078 0 0 0 0 0.007843 0 0 0 1.000000 0"></feColorMatrix>
        </filter>
        <filter id="filter-2">
            <feColorMatrix in="SourceGraphic" type="matrix" values="0 0 0 0 1.000000 0 0 0 0 1.000000 0 0 0 0 1.000000 0 0 0 1.000000 0"></feColorMatrix>
        </filter>
        <filter id="filter-3">
            <feColorMatrix in="SourceGraphic" type="matrix" values="0 0 0 0 1.000000 0 0 0 0 1.000000 0 0 0 0 1.000000 0 0 0 1.000000 0"></feColorMatrix>
        </filter>
    </defs>
    <g id="Home" stroke="none" stroke-width="1" fill="none" fill-rule="evenodd">
        <g id="Desktop-HD-Copy" transform="translate(-472.000000, -1624.000000)">
            <g id="Group-Copy-2" transform="translate(399.000000, 1573.000000)" filter="url(#filter-1)">
                <g transform="translate(73.992238, 51.495379)">
                    <g filter="url(#filter-2)" id="Group-2">
                        <g>
                            <path d="M104.847622,0.227020231 C109.895314,0.819744989 114.821315,2.18765679 119.451825,4.28249204 C117.637401,9.33043105 119.270988,14.9726431 123.501636,18.2700439 C127.72282,21.579051 133.593365,21.7980243 138.04963,18.8126891 C141.202269,22.7989961 143.721238,27.2477158 145.517713,32.0019776 C141.073469,34.1048488 138.32459,38.6033911 138.404277,43.4390252 L129.268545,43.4399046 C126.463858,29.3702124 114.046144,18.767098 99.1519397,18.767098 C90.6307764,18.767098 82.9202004,22.2376344 77.3565986,27.8423204 C71.7817876,33.3912046 68.3259727,41.0674593 68.3109526,49.5537795 C68.2845915,64.4478505 78.8655547,76.884238 92.9301058,79.713944 L92.9301058,79.713944 L92.8965729,98.9533037 C87.9531762,98.3403262 83.1299016,96.985411 78.589577,94.9337741 C80.398472,89.8854842 78.7663164,84.2463769 74.5407312,80.9449879 C70.315146,77.643599 64.4486901,77.4241488 59.9879673,80.4006038 C56.8367996,76.4133072 54.3179647,71.9648244 52.5198838,67.2113154 C57.3722703,64.9222397 60.208736,59.7783499 59.5550237,54.4531902 C58.9013115,49.1280305 54.9049385,44.8232811 49.6430256,43.7763419 C50.2362156,38.7286055 51.6043403,33.802512 53.6991568,29.1717654 C58.7451199,30.9901326 64.3883215,29.3571567 67.6837627,25.1250334 C70.9926862,20.9024285 71.2130933,15.0315519 68.2300805,10.5730313 C72.2150434,7.42318258 76.6617944,4.90655222 81.4136249,3.11182917 C83.2557238,7.01298783 86.9895005,9.67938113 91.2773378,10.1557796 C95.565175,10.6321781 99.7933656,8.8503961 102.44717,5.44875301 C103.64265,3.91861187 104.464594,2.13062725 104.847622,0.227020231 Z M120.885453,71.1735764 C125.078955,66.973 128.062433,61.564059 129.268493,55.5141476 L129.268493,55.5141476 L148.390377,55.5144229 C147.788006,60.5316603 146.423693,65.427841 144.344387,70.033916 L144.347026,70.0270202 L144.050533,69.9250557 C139.182275,68.3233239 133.825072,69.8757757 130.567255,73.8323449 L130.366399,74.0827541 C127.065129,78.3081866 126.843802,84.1737216 129.817269,88.6356233 C125.829739,91.7868311 121.381218,94.3058949 116.627778,96.104437 C114.785679,92.2032783 111.051902,89.536885 106.764065,89.0604865 C106.169761,88.9944567 105.576604,88.9718077 104.988625,88.9908401 L105.004378,79.7353765 C111.056471,78.5400706 116.47074,75.5661845 120.678782,71.3801176 Z" id="Combined-Shape" fill="#000000" fill-rule="nonzero"></path>
                            <path d="M74.8514641,154.314205 C77.2185722,157.921027 81.2871022,160.04183 85.5995124,159.916841 C88.246906,159.840109 90.7535957,158.923738 92.7930898,157.362748 L92.7743327,167.780378 C78.6998051,170.560242 68.074837,182.95912 68.0484266,197.853225 C68.0184571,214.813751 81.743345,228.587309 98.7038708,228.617376 C98.8145993,228.617572 98.9251919,228.617181 99.0356458,228.616207 L99.2831781,228.617375 C114.177289,228.617375 126.594942,218.014393 129.399731,203.944832 L129.399731,203.944832 L148.108579,203.945591 C147.781363,206.608369 147.238529,209.244169 146.483542,211.826741 L146.484785,211.819732 L146.183579,211.760952 C141.135697,210.848987 136.041527,213.134225 133.365851,217.510969 L133.205077,217.781536 C130.524001,222.425295 131.121153,228.26455 134.686659,232.269202 C131.176498,235.944699 127.121857,239.058362 122.664985,241.500952 C120.297876,237.89413 116.229346,235.773327 111.916936,235.898317 C107.604526,236.023306 103.66546,238.376198 101.5109,242.114075 C100.540008,243.795704 99.9749024,245.68068 99.860533,247.619068 C94.7795958,247.732382 89.7114973,247.063395 84.8340445,245.635576 C85.9227493,240.384667 83.5216656,235.027591 78.8777389,232.346419 C74.2338123,229.665246 68.3939068,230.264385 64.3908379,233.832686 C60.7154128,230.322751 57.6019819,226.268115 55.1598391,221.811111 C59.6464248,218.868991 61.7393951,213.380401 60.3509257,208.198045 C58.9624564,203.015688 54.4058705,199.30902 49.0494604,199.004586 C48.9343684,193.923418 49.6035989,188.854859 51.0335534,183.977636 C56.2834774,185.076045 61.6444934,182.673579 64.3188658,178.024006 C67.0079141,173.381982 66.4091081,167.537565 62.8346196,163.53759 C66.3424269,159.863796 70.3956552,156.752789 74.8514641,154.314205 Z M104.88291,148.561732 C107.518161,148.889757 110.126572,149.430173 112.682404,150.179581 C111.588175,155.430913 113.991108,160.790863 118.639493,163.467382 C123.280121,166.156711 129.12401,165.556531 133.121428,161.980057 C136.798173,165.488807 139.91177,169.543659 142.352427,174.001632 C137.872622,176.946775 135.785449,182.43214 137.174379,187.610223 C137.596692,189.184651 138.31144,190.622813 139.252199,191.870658 L129.399784,191.870589 C126.95304,179.59652 117.190392,169.960658 104.849887,167.70105 Z" id="Combined-Shape" fill="#000000" fill-rule="nonzero"></path>
                            <path d="M42.8177926,78.4513399 C43.3034924,82.2886697 45.7475296,85.5946083 49.2743332,87.1848106 C52.8011369,88.7750128 56.9059247,88.4218772 60.1181656,86.2519137 C61.5645901,85.2762908 62.7640257,83.9775356 63.6210662,82.4589545 C67.7639752,84.3581812 71.5871428,86.88527 74.9556773,89.9510584 C72.001326,93.7575006 71.8241975,99.0228838 74.5165596,103.004418 C77.1976132,106.993242 82.146879,108.800709 86.7815001,107.483562 C88.0599,110.938876 88.9002067,114.537894 89.2854217,118.196799 L72.6538818,118.19691 C70.1341654,105.826861 58.9781564,96.5046211 45.5972819,96.5046211 C30.3600109,96.5046211 18.0077622,108.592933 18.0077622,123.504621 C18.0077622,138.416309 30.3600109,150.504621 45.5972819,150.504621 C58.9780731,150.504621 70.1340264,141.182497 72.6538347,128.812563 L72.6538347,128.812563 L80.1612321,128.812332 C80.0738023,129.117888 79.9988842,129.429007 79.9370774,129.745126 C79.0140243,134.466203 81.2232814,139.23882 85.4180024,141.585468 C83.5028437,145.72713 80.9636272,149.55235 77.8889876,152.927602 L77.8939479,152.92234 L77.6427374,152.734809 C73.9451809,150.048476 68.9694262,149.895139 65.0999591,152.348279 L64.8318212,152.523658 C60.8375769,155.21781 59.0151677,160.161685 60.3102756,164.789813 C56.029504,166.377896 51.531346,167.299319 46.973613,167.521756 C46.4879132,163.684426 44.043876,160.378487 40.5170724,158.788285 C36.9902687,157.198083 32.8854809,157.551218 29.6732401,159.721182 C28.2268155,160.696805 27.0273799,161.99556 26.1703394,163.514141 C22.0284093,161.613161 18.2054986,159.086242 14.8357283,156.022037 C17.7854582,152.213769 17.962944,146.95143 15.2760127,142.967891 C12.5890815,138.984351 7.64343856,137.177607 3.00748564,138.485946 C1.42854303,134.213735 0.517705758,129.722562 0.306947905,125.170086 C5.08573725,124.5564 8.93907695,120.950228 9.86418799,116.225885 C10.789299,111.501542 8.57742005,106.725126 4.37817842,104.379187 C6.2902042,100.235784 8.82972532,96.4101057 11.9071932,93.0370525 C15.7072932,95.9816247 20.9782881,96.1460904 24.9694212,93.4446204 C28.9694102,90.7549943 30.792522,85.8063079 29.4883251,81.1784293 C33.7665273,79.5907973 38.2624975,78.6709621 42.8177926,78.4513399 Z" id="Combined-Shape" fill="#000000" fill-rule="nonzero"></path>
                        </g>
                    </g>
                    <g filter="url(#filter-3)" id="Group-Copy">
                        <g transform="translate(45.950461, 49.345656)">
                            <path id="Line" d="M53.0970098,-14.8622684 C61.4497091,-14.8474849 68.2088459,-8.06387803 68.1940616,0.28924472 C68.1808618,7.74711494 62.7723945,13.9347628 55.6686041,15.1649075 L55.4588627,133.668783 C62.5582542,134.924066 67.9447845,141.13082 67.9315847,148.58869 C67.9168004,156.941813 61.1336932,163.701451 52.7809939,163.686668 C44.4282946,163.671884 37.6691578,156.888277 37.6839421,148.535155 C37.6971419,141.077284 43.1056092,134.889636 50.2093996,133.659492 L50.419141,15.1556164 C43.3197495,13.9003333 37.9332192,7.69357929 37.946419,0.235709069 C37.9612033,-8.11741368 44.7443105,-14.877052 53.0970098,-14.8622684 Z M52.641,138.689 L52.8252417,138.686707 C47.3718645,138.677055 42.9431249,143.090471 42.9334719,148.544446 C42.9238188,153.99842 47.336908,158.427486 52.7902851,158.437138 C58.2436623,158.44679 62.6724019,154.033373 62.6820549,148.579399 C62.6915669,143.205138 58.4066737,138.826044 53.0636771,138.689952 L52.641,138.689 Z M53.0877186,-9.61273864 C47.6343414,-9.62239063 43.2056018,-5.2089741 43.1959488,0.245000272 C43.1864119,5.63332868 47.4937906,10.0212723 52.8563037,10.135429 L53.251,10.135 L53.3291528,10.1343878 C58.6549965,9.99743816 62.9350424,5.64148765 62.9445318,0.279953517 C62.9541849,-5.17402086 58.5410957,-9.60308664 53.0877186,-9.61273864 Z" fill="#FFFFFF" fill-rule="nonzero"></path>
                            <path id="Line-3" d="M136.669131,-14.9926066 C145.022267,-14.9926066 151.7939,-8.22147394 151.7939,0.131238447 C151.7939,8.48395084 145.022267,15.2550834 136.669131,15.2550834 C129.211599,15.2550834 123.014621,9.85808295 121.771498,2.75697429 L68.0991121,2.75697429 C66.8559894,9.85808295 60.6590105,15.2550834 53.2014787,15.2550834 C44.8483429,15.2550834 38.0767097,8.48395084 38.0767097,0.131238447 C38.0767097,-8.22147394 44.8483429,-14.9926066 53.2014787,-14.9926066 C60.6593606,-14.9926066 66.8565713,-9.59509929 68.0992871,-2.49349723 L121.771323,-2.49349723 C123.014039,-9.59509929 129.211249,-14.9926066 136.669131,-14.9926066 Z M53.2014787,-9.74306855 C47.7474958,-9.74306855 43.3262477,-5.32214729 43.3262477,0.131238447 C43.3262477,5.58462418 47.7474958,10.0055454 53.2014787,10.0055454 C58.6554617,10.0055454 63.0767097,5.58462418 63.0767097,0.131238447 C63.0767097,-5.32214729 58.6554617,-9.74306855 53.2014787,-9.74306855 Z M136.669131,-9.74306855 C131.215148,-9.74306855 126.7939,-5.32214729 126.7939,0.131238447 C126.7939,5.58462418 131.215148,10.0055454 136.669131,10.0055454 C142.123114,10.0055454 146.544362,5.58462418 146.544362,0.131238447 C146.544362,-5.32214729 142.123114,-9.74306855 136.669131,-9.74306855 Z" fill="#FFFFFF" fill-rule="nonzero"></path>
                            <path id="Line-3-Copy" d="M136.80037,133.438077 C145.153506,133.438077 151.925139,140.20921 151.925139,148.561922 C151.925139,156.914635 145.153506,163.685767 136.80037,163.685767 C129.342488,163.685767 123.145277,158.28826 121.902561,151.186658 L68.2305256,151.186658 C66.9878098,158.28826 60.7905991,163.685767 53.3327172,163.685767 C44.9795814,163.685767 38.2079482,156.914635 38.2079482,148.561922 C38.2079482,140.20921 44.9795814,133.438077 53.3327172,133.438077 C60.7905991,133.438077 66.9878098,138.835585 68.2305256,145.937187 L121.902561,145.937187 C123.145277,138.835585 129.342488,133.438077 136.80037,133.438077 Z M53.3327172,138.687615 C47.8787343,138.687615 43.4574862,143.108537 43.4574862,148.561922 C43.4574862,154.015308 47.8787343,158.436229 53.3327172,158.436229 C58.7867001,158.436229 63.2079482,154.015308 63.2079482,148.561922 C63.2079482,143.108537 58.7867001,138.687615 53.3327172,138.687615 Z M136.80037,138.687615 C131.346387,138.687615 126.925139,143.108537 126.925139,148.561922 C126.925139,154.015308 131.346387,158.436229 136.80037,158.436229 C142.254353,158.436229 146.675601,154.015308 146.675601,148.561922 C146.675601,143.108537 142.254353,138.687615 136.80037,138.687615 Z" fill="#FFFFFF" fill-rule="nonzero"></path>
                            <path id="Line-3-Copy-2" d="M104.557301,59.5351199 C112.910437,59.5351199 119.68207,66.3062525 119.68207,74.6589649 C119.68207,83.0116773 112.910437,89.7828099 104.557301,89.7828099 C97.0994194,89.7828099 90.9022087,84.3853026 89.6594929,77.2837006 L15.4551097,77.2837006 C14.2123939,84.3853026 8.01518319,89.7828099 0.557301294,89.7828099 C-7.79583454,89.7828099 -14.5674677,83.0116773 -14.5674677,74.6589649 C-14.5674677,66.3062525 -7.79583454,59.5351199 0.557301294,59.5351199 C8.01518319,59.5351199 14.2123939,64.9326271 15.4551097,72.0342292 L89.6594929,72.0342292 C90.9022087,64.9326271 97.0994194,59.5351199 104.557301,59.5351199 Z M0.557301294,64.7846579 C-4.89668162,64.7846579 -9.31792971,69.2055791 -9.31792971,74.6589649 C-9.31792971,80.1123506 -4.89668162,84.5332719 0.557301294,84.5332719 C6.01128421,84.5332719 10.4325323,80.1123506 10.4325323,74.6589649 C10.4325323,69.2055791 6.01128421,64.7846579 0.557301294,64.7846579 Z M104.557301,64.7846579 C99.1033184,64.7846579 94.6820703,69.2055791 94.6820703,74.6589649 C94.6820703,80.1123506 99.1033184,84.5332719 104.557301,84.5332719 C110.011284,84.5332719 114.432532,80.1123506 114.432532,74.6589649 C114.432532,69.2055791 110.011284,64.7846579 104.557301,64.7846579 Z" fill="#FFFFFF" fill-rule="nonzero"></path>
                        </g>
                    </g>
                </g>
            </g>
        </g>
    </g>
</svg>