<?xml version="1.0" encoding="UTF-8"?>
<svg width="364px" height="388px" viewBox="0 0 364 388" version="1.1" xmlns="http://www.w3.org/2000/svg" xmlns:xlink="http://www.w3.org/1999/xlink">
    <title>myLogo Copy</title>
    <defs>
        <filter id="filter-1">
            <feColorMatrix in="SourceGraphic" type="matrix" values="0 0 0 0 1.000000 0 0 0 0 1.000000 0 0 0 0 1.000000 0 0 0 1.000000 0"></feColorMatrix>
        </filter>
    </defs>
    <g id="Home" stroke="none" stroke-width="1" fill="none" fill-rule="evenodd">
        <g id="Desktop-HD-Copy" transform="translate(-399.000000, -1573.000000)">
            <g id="myLogo-Copy" transform="translate(399.000000, 1573.000000)">
                <path d="M217.7525,0 C235.648191,4.34905787 252.766061,11.4319603 268.5025,20.9989501 C259.753332,38.3591886 263.129629,59.37355 276.876555,73.1197888 C290.623481,86.8660276 311.638893,90.2421556 329,81.4934253 C338.561737,97.2319828 345.644616,114.348085 350,132.240888 C331.549921,138.337834 319.089324,155.578255 319.089324,175.00875 C319.089324,194.439245 331.549921,211.679665 350,217.776611 C345.643822,235.669155 338.560991,252.785138 329,268.524074 C322.710032,265.371088 315.771051,263.729304 308.735,263.729314 C293.101826,263.718318 278.581716,271.816441 270.376468,285.122547 C262.17122,298.428654 261.45523,315.038274 268.485,329.00105 C252.745278,338.561563 235.628438,345.644039 217.735,350 C211.628021,331.555824 194.386043,319.102641 174.95625,319.102641 C155.720755,319.102641 138.629537,331.308005 132.364041,349.448478 L132.185,349.975 L131.020909,349.68762 C113.56128,345.303695 96.8556434,338.325308 81.4625,328.983551 C90.1949565,311.63116 86.8184592,290.635461 73.0857796,276.895519 C59.3531001,263.155577 38.3583089,259.767099 21,268.489076 C11.4325319,252.753423 4.34927532,235.636409 0,217.741613 C18.4654899,211.677208 30.9365704,194.426174 30.905,174.99125 C30.9276801,155.555198 18.4614127,138.303763 0,132.223389 C4.34847648,114.328332 11.4317825,97.2111982 21,81.4759262 C27.2899678,84.6289118 34.2289495,86.2706959 41.265,86.2706865 C56.8981743,86.2816816 71.4182838,78.1835588 79.6235317,64.8774526 C87.8287795,51.5713464 88.5447696,34.9617257 81.515,20.9989501 C97.2402249,11.4345151 114.346169,4.35166244 132.23,0 C138.306028,18.4638916 155.561206,30.9316172 175,30.9034548 C194.435895,30.9350236 211.687792,18.4645666 217.7525,0 Z" id="primary-copy-5" fill="#0A6000" fill-rule="nonzero" transform="translate(175.000000, 175.000000) scale(-1, 1) translate(-175.000000, -175.000000) "></path>
                <g filter="url(#filter-1)" id="Group-Copy-2">
                    <g transform="translate(73.992238, 51.495379)">
                        <g id="Group-2" fill="#000000" fill-rule="nonzero">
                            <path d="M104.847622,0.227020231 C109.895314,0.819744989 114.821315,2.18765679 119.451825,4.28249204 C117.637401,9.33043105 119.270988,14.9726431 123.501636,18.2700439 C127.72282,21.579051 133.593365,21.7980243 138.04963,18.8126891 C141.202269,22.7989961 143.721238,27.2477158 145.517713,32.0019776 C141.073469,34.1048488 138.32459,38.6033911 138.404277,43.4390252 L129.268545,43.4399046 C126.463858,29.3702124 114.046144,18.767098 99.1519397,18.767098 C90.6307764,18.767098 82.9202004,22.2376344 77.3565986,27.8423204 C71.7817876,33.3912046 68.3259727,41.0674593 68.3109526,49.5537795 C68.2845915,64.4478505 78.8655547,76.884238 92.9301058,79.713944 L92.9301058,79.713944 L92.8965729,98.9533037 C87.9531762,98.3403262 83.1299016,96.985411 78.589577,94.9337741 C80.398472,89.8854842 78.7663164,84.2463769 74.5407312,80.9449879 C70.315146,77.643599 64.4486901,77.4241488 59.9879673,80.4006038 C56.8367996,76.4133072 54.3179647,71.9648244 52.5198838,67.2113154 C57.3722703,64.9222397 60.208736,59.7783499 59.5550237,54.4531902 C58.9013115,49.1280305 54.9049385,44.8232811 49.6430256,43.7763419 C50.2362156,38.7286055 51.6043403,33.802512 53.6991568,29.1717654 C58.7451199,30.9901326 64.3883215,29.3571567 67.6837627,25.1250334 C70.9926862,20.9024285 71.2130933,15.0315519 68.2300805,10.5730313 C72.2150434,7.42318258 76.6617944,4.90655222 81.4136249,3.11182917 C83.2557238,7.01298783 86.9895005,9.67938113 91.2773378,10.1557796 C95.565175,10.6321781 99.7933656,8.8503961 102.44717,5.44875301 C103.64265,3.91861187 104.464594,2.13062725 104.847622,0.227020231 Z M120.885453,71.1735764 C125.078955,66.973 128.062433,61.564059 129.268493,55.5141476 L129.268493,55.5141476 L148.390377,55.5144229 C147.788006,60.5316603 146.423693,65.427841 144.344387,70.033916 L144.347026,70.0270202 L144.050533,69.9250557 C139.182275,68.3233239 133.825072,69.8757757 130.567255,73.8323449 L130.366399,74.0827541 C127.065129,78.3081866 126.843802,84.1737216 129.817269,88.6356233 C125.829739,91.7868311 121.381218,94.3058949 116.627778,96.104437 C114.785679,92.2032783 111.051902,89.536885 106.764065,89.0604865 C106.169761,88.9944567 105.576604,88.9718077 104.988625,88.9908401 L105.004378,79.7353765 C111.056471,78.5400706 116.47074,75.5661845 120.678782,71.3801176 Z" id="Combined-Shape"></path>
                            <path d="M74.8514641,154.314205 C77.2185722,157.921027 81.2871022,160.04183 85.5995124,159.916841 C88.246906,159.840109 90.7535957,158.923738 92.7930898,157.362748 L92.7743327,167.780378 C78.6998051,170.560242 68.074837,182.95912 68.0484266,197.853225 C68.0184571,214.813751 81.743345,228.587309 98.7038708,228.617376 C98.8145993,228.617572 98.9251919,228.617181 99.0356458,228.616207 L99.2831781,228.617375 C114.177289,228.617375 126.594942,218.014393 129.399731,203.944832 L129.399731,203.944832 L148.108579,203.945591 C147.781363,206.608369 147.238529,209.244169 146.483542,211.826741 L146.484785,211.819732 L146.183579,211.760952 C141.135697,210.848987 136.041527,213.134225 133.365851,217.510969 L133.205077,217.781536 C130.524001,222.425295 131.121153,228.26455 134.686659,232.269202 C131.176498,235.944699 127.121857,239.058362 122.664985,241.500952 C120.297876,237.89413 116.229346,235.773327 111.916936,235.898317 C107.604526,236.023306 103.66546,238.376198 101.5109,242.114075 C100.540008,243.795704 99.9749024,245.68068 99.860533,247.619068 C94.7795958,247.732382 89.7114973,247.063395 84.8340445,245.635576 C85.9227493,240.384667 83.5216656,235.027591 78.8777389,232.346419 C74.2338123,229.665246 68.3939068,230.264385 64.3908379,233.832686 C60.7154128,230.322751 57.6019819,226.268115 55.1598391,221.811111 C59.6464248,218.868991 61.7393951,213.380401 60.3509257,208.198045 C58.9624564,203.015688 54.4058705,199.30902 49.0494604,199.004586 C48.9343684,193.923418 49.6035989,188.854859 51.0335534,183.977636 C56.2834774,185.076045 61.6444934,182.673579 64.3188658,178.024006 C67.0079141,173.381982 66.4091081,167.537565 62.8346196,163.53759 C66.3424269,159.863796 70.3956552,156.752789 74.8514641,154.314205 Z M104.88291,148.561732 C107.518161,148.889757 110.126572,149.430173 112.682404,150.179581 C111.588175,155.430913 113.991108,160.790863 118.639493,163.467382 C123.280121,166.156711 129.12401,165.556531 133.121428,161.980057 C136.798173,165.488807 139.91177,169.543659 142.352427,174.001632 C137.872622,176.946775 135.785449,182.43214 137.174379,187.610223 C137.596692,189.184651 138.31144,190.622813 139.252199,191.870658 L129.399784,191.870589 C126.95304,179.59652 117.190392,169.960658 104.849887,167.70105 Z" id="Combined-Shape"></path>
                            <path d="M42.8177926,78.4513399 C43.3034924,82.2886697 45.7475296,85.5946083 49.2743332,87.1848106 C52.8011369,88.7750128 56.9059247,88.4218772 60.1181656,86.2519137 C61.5645901,85.2762908 62.7640257,83.9775356 63.6210662,82.4589545 C67.7639752,84.3581812 71.5871428,86.88527 74.9556773,89.9510584 C72.001326,93.7575006 71.8241975,99.0228838 74.5165596,103.004418 C77.1976132,106.993242 82.146879,108.800709 86.7815001,107.483562 C88.0599,110.938876 88.9002067,114.537894 89.2854217,118.196799 L72.6538818,118.19691 C70.1341654,105.826861 58.9781564,96.5046211 45.5972819,96.5046211 C30.3600109,96.5046211 18.0077622,108.592933 18.0077622,123.504621 C18.0077622,138.416309 30.3600109,150.504621 45.5972819,150.504621 C58.9780731,150.504621 70.1340264,141.182497 72.6538347,128.812563 L72.6538347,128.812563 L80.1612321,128.812332 C80.0738023,129.117888 79.9988842,129.429007 79.9370774,129.745126 C79.0140243,134.466203 81.2232814,139.23882 85.4180024,141.585468 C83.5028437,145.72713 80.9636272,149.55235 77.8889876,152.927602 L77.8939479,152.92234 L77.6427374,152.734809 C73.9451809,150.048476 68.9694262,149.895139 65.0999591,152.348279 L64.8318212,152.523658 C60.8375769,155.21781 59.0151677,160.161685 60.3102756,164.789813 C56.029504,166.377896 51.531346,167.299319 46.973613,167.521756 C46.4879132,163.684426 44.043876,160.378487 40.5170724,158.788285 C36.9902687,157.198083 32.8854809,157.551218 29.6732401,159.721182 C28.2268155,160.696805 27.0273799,161.99556 26.1703394,163.514141 C22.0284093,161.613161 18.2054986,159.086242 14.8357283,156.022037 C17.7854582,152.213769 17.962944,146.95143 15.2760127,142.967891 C12.5890815,138.984351 7.64343856,137.177607 3.00748564,138.485946 C1.42854303,134.213735 0.517705758,129.722562 0.306947905,125.170086 C5.08573725,124.5564 8.93907695,120.950228 9.86418799,116.225885 C10.789299,111.501542 8.57742005,106.725126 4.37817842,104.379187 C6.2902042,100.235784 8.82972532,96.4101057 11.9071932,93.0370525 C15.7072932,95.9816247 20.9782881,96.1460904 24.9694212,93.4446204 C28.9694102,90.7549943 30.792522,85.8063079 29.4883251,81.1784293 C33.7665273,79.5907973 38.2624975,78.6709621 42.8177926,78.4513399 Z" id="Combined-Shape"></path>
                        </g>
                        <g id="Group-Copy" transform="translate(44.950461, 49.345656)" fill="#000000" fill-rule="nonzero">
                            <path id="Line" d="M54.0970098,-14.8622684 C62.4497089,-14.8474848 69.2088456,-8.06387799 69.1940613,0.289244719 C69.1808616,7.7471149 63.7723944,13.9347627 56.6686041,15.1649074 L56.4588627,133.668783 C63.558254,134.924066 68.9447842,141.13082 68.9315844,148.58869 C68.9168002,156.941813 62.1336931,163.701451 53.7809939,163.686668 C45.4282948,163.671884 38.6691581,156.888277 38.6839424,148.535155 C38.6971421,141.077284 44.1056093,134.889637 51.2093996,133.659492 L51.419141,15.1556163 C44.3197497,13.9003333 38.9332195,7.69357925 38.9464193,0.23570907 C38.9612035,-8.11741364 45.7443106,-14.8770519 54.0970098,-14.8622684 Z M53.641,138.689 L53.8252417,138.686707 C48.3718646,138.677055 43.9431251,143.090471 43.933472,148.544446 C43.923819,153.99842 48.336908,158.427486 53.7902851,158.437138 C59.2436622,158.44679 63.6724017,154.033373 63.6820548,148.579399 C63.6915667,143.205138 59.4066736,138.826044 54.0636771,138.689952 L53.641,138.689 Z M54.0877186,-9.61273869 C48.6343415,-9.62239069 44.205602,-5.20897414 44.1959489,0.245000273 C44.1864121,5.63332871 48.4937907,10.0212724 53.8563037,10.1354291 L54.251,10.135 L54.3291528,10.1343878 C59.6549964,9.99743821 63.9350422,5.64148768 63.9445317,0.279953517 C63.9541847,-5.1740209 59.5410956,-9.6030867 54.0877186,-9.61273869 Z"></path>
                            <path id="Line-3" d="M137.669131,-14.9926063 C146.022267,-14.9926063 152.7939,-8.2214738 152.7939,0.131238447 C152.7939,8.4839507 146.022267,15.2550832 137.669131,15.2550832 C130.211599,15.2550832 124.014621,9.85808279 122.771498,2.75697425 L69.099112,2.75697425 C67.8559894,9.85808279 61.6590105,15.2550832 54.2014787,15.2550832 C45.848343,15.2550832 39.0767098,8.4839507 39.0767098,0.131238447 C39.0767098,-8.2214738 45.848343,-14.9926063 54.2014787,-14.9926063 C61.6593606,-14.9926063 67.8565713,-9.59509912 69.0992871,-2.49349719 L122.771323,-2.49349719 C124.014039,-9.59509912 130.211249,-14.9926063 137.669131,-14.9926063 Z M54.2014787,-9.74306839 C48.7474958,-9.74306839 44.3262477,-5.32214719 44.3262477,0.131238447 C44.3262477,5.58462408 48.7474958,10.0055453 54.2014787,10.0055453 C59.6554617,10.0055453 64.0767098,5.58462408 64.0767098,0.131238447 C64.0767098,-5.32214719 59.6554617,-9.74306839 54.2014787,-9.74306839 Z M137.669131,-9.74306839 C132.215148,-9.74306839 127.7939,-5.32214719 127.7939,0.131238447 C127.7939,5.58462408 132.215148,10.0055453 137.669131,10.0055453 C143.123114,10.0055453 147.544362,5.58462408 147.544362,0.131238447 C147.544362,-5.32214719 143.123114,-9.74306839 137.669131,-9.74306839 Z"></path>
                            <path id="Line-3-Copy" d="M137.80037,133.438078 C146.153505,133.438078 152.925139,140.20921 152.925139,148.561922 C152.925139,156.914635 146.153505,163.685767 137.80037,163.685767 C130.342488,163.685767 124.145277,158.28826 122.902561,151.186658 L69.2305255,151.186658 C67.9878097,158.28826 61.7905991,163.685767 54.3327172,163.685767 C45.9795814,163.685767 39.2079482,156.914635 39.2079482,148.561922 C39.2079482,140.20921 45.9795814,133.438078 54.3327172,133.438078 C61.7905991,133.438078 67.9878097,138.835585 69.2305255,145.937187 L122.902561,145.937187 C124.145277,138.835585 130.342488,133.438078 137.80037,133.438078 Z M54.3327172,138.687616 C48.8787342,138.687616 44.4574861,143.108537 44.4574861,148.561922 C44.4574861,154.015308 48.8787342,158.436229 54.3327172,158.436229 C59.7867001,158.436229 64.2079482,154.015308 64.2079482,148.561922 C64.2079482,143.108537 59.7867001,138.687616 54.3327172,138.687616 Z M137.80037,138.687616 C132.346387,138.687616 127.925139,143.108537 127.925139,148.561922 C127.925139,154.015308 132.346387,158.436229 137.80037,158.436229 C143.254353,158.436229 147.675601,154.015308 147.675601,148.561922 C147.675601,143.108537 143.254353,138.687616 137.80037,138.687616 Z"></path>
                            <path id="Line-3-Copy-2" d="M83.4676525,59.4195933 C91.8207883,59.4195933 98.5924214,66.1907258 98.5924214,74.5434381 C98.5924214,82.8961503 91.8207883,89.6672828 83.4676525,89.6672828 C76.0101208,89.6672828 69.8131419,84.2702824 68.5700192,77.1691739 L14.8976333,77.1691739 C13.6545106,84.2702824 7.45753174,89.6672828 -4.80324524e-14,89.6672828 C-8.35313579,89.6672828 -15.1247689,82.8961503 -15.1247689,74.5434381 C-15.1247689,66.1907258 -8.35313579,59.4195933 5.07339726e-14,59.4195933 C7.45788186,59.4195933 13.6550925,64.8171005 14.8978083,71.9187024 L68.5698442,71.9187024 C69.81256,64.8171005 76.0097706,59.4195933 83.4676525,59.4195933 Z M3.45248514e-14,64.6691312 C-5.45398295,64.6691312 -9.87523105,69.0900524 -9.87523105,74.5434381 C-9.87523105,79.9968237 -5.45398295,84.4177449 -3.18233312e-14,84.4177449 C5.45398295,84.4177449 9.87523105,79.9968237 9.87523105,74.5434381 C9.87523105,69.0900524 5.45398295,64.6691312 3.45248514e-14,64.6691312 Z M83.4676525,64.6691312 C78.0136695,64.6691312 73.5924214,69.0900524 73.5924214,74.5434381 C73.5924214,79.9968237 78.0136695,84.4177449 83.4676525,84.4177449 C88.9216355,84.4177449 93.3428835,79.9968237 93.3428835,74.5434381 C93.3428835,69.0900524 88.9216355,64.6691312 83.4676525,64.6691312 Z"></path>
                        </g>
                    </g>
                </g>
            </g>
        </g>
    </g>
</svg>