<?xml version="1.0" encoding="UTF-8"?>
<svg width="857px" height="857px" viewBox="0 0 857 857" version="1.1" xmlns="http://www.w3.org/2000/svg" xmlns:xlink="http://www.w3.org/1999/xlink">
    <title>icon - gear</title>
    <defs>
        <filter x="-1.4%" y="-1.4%" width="102.9%" height="102.9%" filterUnits="objectBoundingBox" id="filter-1">
            <feOffset dx="0" dy="2" in="SourceAlpha" result="shadowOffsetOuter1"></feOffset>
            <feGaussianBlur stdDeviation="2" in="shadowOffsetOuter1" result="shadowBlurOuter1"></feGaussianBlur>
            <feColorMatrix values="0 0 0 0 0   0 0 0 0 0   0 0 0 0 0  0 0 0 0.5 0" type="matrix" in="shadowBlurOuter1" result="shadowMatrixOuter1"></feColorMatrix>
            <feMerge>
                <feMergeNode in="shadowMatrixOuter1"></feMergeNode>
                <feMergeNode in="SourceGraphic"></feMergeNode>
            </feMerge>
        </filter>
    </defs>
    <g id="Home" stroke="none" stroke-width="1" fill="none" fill-rule="evenodd">
        <g id="Desktop-HD" transform="translate(429.000000, -733.000000)" fill="#116B75" fill-rule="nonzero">
            <g id="icon---gear" filter="url(#filter-1)" transform="translate(-420.000000, 742.000000)">
                <path d="M316.93225,838.958052 L316.93225,838.958052 C274.044499,828.499732 233.01544,811.523039 195.27725,788.620569 C216.210196,747.02441 208.116249,696.69472 175.197055,663.758116 C142.27786,630.821512 91.9503463,622.698846 50.34,643.60667 C27.4054123,605.886064 10.4258343,564.854135 1.13686838e-13,521.957752 C44.2644172,507.420507 74.1593787,466.067313 74.0837,419.479026 C74.1380675,372.888033 44.2546437,331.533878 1.13686838e-13,316.958352 C10.4239193,274.061344 27.4036158,233.02913 50.34,195.309435 C65.4179513,202.867591 82.0516817,206.803182 98.9181,206.80316 C136.393052,206.829517 171.199829,187.41716 190.86898,155.520522 C210.538131,123.623885 212.254462,83.808251 195.4031,50.3374831 C233.098711,27.4101661 274.104103,10.4315565 316.9742,0 C331.539307,44.2605858 372.902434,74.1475053 419.5,74.079996 C466.090616,74.1556709 507.445878,44.2622041 521.98385,0 C564.882378,10.425313 605.916358,27.4040421 643.63885,50.3374831 C622.665845,91.9524549 630.759311,142.326881 663.712657,175.278579 C696.666002,208.230278 747.042947,216.323339 788.66,195.351382 C811.58085,233.078953 828.559523,274.108696 839,317.0003 C794.772524,331.61555 764.902695,372.943302 764.902695,419.520974 C764.902695,466.098646 794.772524,507.426398 839,522.041648 C828.557618,564.932631 811.579062,605.962089 788.66,643.690565 C773.582049,636.132409 756.948318,632.196818 740.0819,632.19684 C702.606948,632.170483 667.800171,651.58284 648.13102,683.479478 C628.461869,715.376115 626.745538,755.191749 643.5969,788.662517 C605.866537,811.580433 564.835027,828.55814 521.9419,839 C507.302599,794.786674 465.971114,764.934617 419.395125,764.934617 C372.819136,764.934617 331.487651,794.786674 316.84835,839 L316.93225,838.958052 Z M419.544418,247 C349.771889,246.983058 286.86019,288.999972 260.147655,353.456518 C233.43512,417.913064 248.182929,492.114175 297.513566,541.456796 C346.844202,590.799417 421.041731,605.565249 485.504766,578.868374 C549.967801,552.171499 592,489.270011 592,419.497482 C591.884618,324.293943 514.747928,247.138514 419.544418,247 Z" id="primary"></path>
            </g>
        </g>
    </g>
</svg>