<?xml version="1.0" encoding="UTF-8"?>
<svg width="1145px" height="1343px" viewBox="0 0 1145 1343" version="1.1" xmlns="http://www.w3.org/2000/svg" xmlns:xlink="http://www.w3.org/1999/xlink">
    <title>myLogo-green</title>
    <defs>
        <filter id="filter-1">
            <feColorMatrix in="SourceGraphic" type="matrix" values="0 0 0 0 0.000000 0 0 0 0 0.000000 0 0 0 0 0.000000 0 0 0 1.000000 0"></feColorMatrix>
        </filter>
        <filter id="filter-2">
            <feColorMatrix in="SourceGraphic" type="matrix" values="0 0 0 0 0.474510 0 0 0 0 0.474510 0 0 0 0 0.474510 0 0 0 1.000000 0"></feColorMatrix>
        </filter>
    </defs>
    <g id="Home" stroke="none" stroke-width="1" fill="none" fill-rule="evenodd">
        <g id="Logo-for-me-Copy-6" transform="translate(-102.000000, -34.000000)">
            <g id="myLogo-green" transform="translate(134.000000, 65.000000)">
                <g filter="url(#filter-1)" id="icon---tree">
                    <g transform="translate(0.172925, 0.913094)" fill="#0A6000">
                        <path d="M1036.0671,525.880676 C1029.17096,520.091423 992.828261,549.657965 985.104576,539.664612 C977.380891,529.671258 1016.75789,481.634244 1005.24133,485.631585 C993.72476,489.628926 994.276451,525.329319 953.175414,554.551262 C912.074378,583.773205 857.250008,610.169441 840.837178,602.795035 C824.424347,595.42063 884.07602,539.113254 887.524094,525.604997 C890.972167,512.096741 866.352922,546.2809 854.698433,539.388933 C843.043945,532.496965 844.354213,495.487099 840.906139,498.864163 C842.634665,522.707738 839.273255,546.646212 831.044649,569.093313 C814.631818,598.659855 826.355269,589.08002 775.254818,617.337087 C764.910598,622.9885 663.675158,678.331001 646.296867,657.10374 C628.918576,635.87648 648.29675,607.068055 676.43303,569.437912 C704.56931,531.807768 761.600447,513.612974 758.704065,506.445327 L733.60209,504.860175 L733.60209,467.919228 L711.465457,506.445327 C706.914,506.031809 698.500701,512.027821 687.053096,522.159014 C672.141951,510.744117 658.459869,497.809452 646.227905,483.563995 C645.469329,482.736959 648.158827,443.797341 646.227905,442.212189 C644.296984,440.627036 635.19407,472.674686 630.711574,468.194907 C615.677974,453.170417 601.885679,440.213518 599.816835,442.212189 C596.2998,445.589253 657.054856,498.174966 653.124053,540.00921 C649.193249,581.843454 584.162581,609.618083 584.162581,609.618083 C561.702949,624.140155 536.324113,633.551455 509.822115,637.185954 C446.680683,578.003748 392.732987,509.733095 349.76254,434.631024 C344.40823,419.500368 342.914965,403.273908 345.417967,387.421046 C348.038503,381.631793 389.13954,357.509906 391.622153,350.686858 L373.20944,354.063923 L364.865102,327.185249 L355.417381,357.923424 C354.382958,352.54769 327.350062,379.702042 325.557063,373.637111 C318.040263,375.291183 322.10899,374.601986 319.005724,359.853175 C315.902457,345.104365 325.901871,332.285305 323.143412,330.010955 C320.384953,327.736606 315.488689,341.175943 313.626729,340.004309 C311.764769,338.832674 307.420196,308.370177 307.420196,322.981148 C307.420196,337.59212 314.316344,367.641099 313.626729,398.792793 C312.937114,429.944486 401.621566,633.326452 391.829037,632.016978 C343.556007,655.656427 230.872963,571.091984 203.909028,543.455194 C176.945093,515.818403 194.047538,502.103388 193.70273,483.426155 C193.70273,471.985489 181.634473,479.428814 178.807052,478.601778 L157.015227,457.925875 L152.739616,414.024041 L141.912665,443.659502 L122.879299,426.016065 L171.152329,499.139842 L158.463418,534.633475 C141.429935,529.740178 133.016635,527.741507 136.602632,532.359126 C140.244112,536.257108 144.08828,539.960917 148.119198,543.455194 C151.98104,546.970097 32.0570413,588.666502 39.7807261,595.42063 C50.738247,594.639337 61.5935101,592.792752 72.1926176,589.907056 C74.6062691,589.424618 56.1245948,614.235702 60.2622831,613.339746 C64.0538906,611.340207 67.5568339,608.836309 70.6754652,605.896421 C71.9167717,604.862626 74.8131535,620.85199 77.9164197,618.233043 C79.0198033,617.337087 80.3990327,597.55714 83.0885301,595.627389 C85.7780275,593.697638 88.3296019,591.354369 92.1224828,588.735421 C94.5965842,586.700585 97.3935702,585.093293 100.397859,583.979964 C134.878595,576.536638 136.53367,549.520125 178.462245,570.196028 C225.372434,602.019073 268.865405,638.603086 308.247734,679.364796 C358.465203,702.224317 398.43478,742.857113 420.448048,793.426861 C424.954204,806.037345 427.286033,819.320715 427.344195,832.711076 L427.344195,1064.35011 C427.344195,1064.35011 429.688885,1120.45073 341.211317,1172.76076 C252.73375,1225.07079 97.5704391,1247.53861 73.4339241,1273.72809 C90.2145488,1276.94434 106.69634,1280.71195 122.879299,1285.03091 C256.026908,1319.15985 395.638911,1319.15985 528.78652,1285.03091 C661.934128,1250.90198 801.546131,1250.90198 934.69374,1285.03091 C957.588949,1291.16476 981.242733,1296.1959 1005.31029,1300.12432 C980.415196,1263.87257 827.389691,1231.68708 733.671051,1172.76076 C639.952411,1113.83444 630.228844,1064.35011 630.228844,1064.35011 L630.228844,832.711076 C638.522292,763.592223 684.219728,704.650707 749.118421,679.364796 C749.118421,679.364796 1043.03221,531.945608 1036.0671,525.880676 Z" id="secondary" fill-rule="nonzero"></path>
                        <path d="M164.18722,331.25151 C164.18722,328.356883 189.702965,374.808745 189.702965,374.808745 C190.810892,371.263417 190.810892,367.464764 189.702965,363.919436 C178.918273,342.632403 169.699029,320.588729 162.118376,297.963306 C161.880791,143.541169 280.152864,14.7301748 434.119843,1.72448626 C588.086821,-11.2812023 726.31437,95.8631056 752.014802,248.13438 C753.945724,259.161528 686.639328,280.940146 694.087167,297.963306 C696.983548,293.897045 703.465927,271.980588 781.323428,248.13438 C1020.48181,219.188116 1080.20244,379.702042 1080.20244,513.750813 C1080.20244,647.847771 971.429459,756.5549 837.251181,756.5549 L216.597939,756.5549 C107.456976,756.639807 15.4026014,675.340236 2.06194833,567.083294 C-11.2787047,458.826352 58.286968,357.634252 164.18722,331.25151 Z" id="primary" stroke="#0A6000" stroke-width="64.5730141"></path>
                    </g>
                </g>
                <g filter="url(#filter-2)" id="Group">
                    <g transform="translate(125.695779, 200.000000)">
                        <g id="Group-2" fill="#000000" fill-rule="nonzero">
                            <path d="M418.503969,0.864915105 C437.734962,3.12311295 456.502336,8.33466425 474.143926,16.3156915 C467.231225,35.5476282 473.454963,57.0436612 489.573133,69.6062942 C505.65525,82.2131448 528.021201,83.0474025 544.998941,71.673696 C557.010052,86.8609639 566.606969,103.809959 573.451287,121.923027 C556.518141,129.935239 546.045016,147.075915 546.350161,165.500489 L511.544247,165.499918 C500.858782,111.896372 453.549041,71.5 396.804221,71.5 C364.381473,71.5 335.039023,84.6883225 313.84873,105.993108 C292.562801,127.13809 279.361704,156.418285 279.304404,188.792921 C279.203972,245.537233 319.515952,292.918118 373.09991,303.698899 L373.09991,303.698899 L372.969936,376.997875 C354.137066,374.662386 335.761833,369.500449 318.464515,361.684309 C325.35615,342.451035 319.137867,320.96683 303.038983,308.389003 C286.940098,295.811176 264.589728,294.975102 247.595002,306.314976 C235.589497,291.123938 225.993091,274.175845 219.142656,256.065645 C237.629565,247.344589 248.4361,227.747093 245.945548,207.458985 C243.454997,187.170877 228.229378,170.770388 208.182231,166.781697 C210.442202,147.550532 215.654564,128.78281 223.63552,111.140318 C242.859929,118.06804 264.359732,111.846632 276.914899,95.7228386 C289.521431,79.6353084 290.361151,57.2680955 278.996292,40.2817602 C294.17844,28.2812801 311.119935,18.6932729 329.22374,11.8556309 C336.241877,26.7184959 350.467041,36.8770788 366.803097,38.69209 C383.139153,40.5071011 399.247963,33.7187626 409.358584,20.7589815 C413.913196,14.9293593 417.044687,8.11738973 418.503969,0.864915105 Z M584.395846,211.501194 C582.100955,230.61649 576.903072,249.270572 568.981079,266.819356 L568.992231,266.791915 L568.440526,266.599228 C549.547452,260.113836 528.606101,266.182384 516.106895,281.764875 L515.726914,282.244859 C503.149542,298.343162 502.306317,320.690024 513.634806,337.689241 C498.442878,349.694899 481.494642,359.292177 463.384702,366.144369 C456.366564,351.281504 442.141401,341.122921 425.805345,339.30791 C423.540372,339.056261 421.279767,338.969998 419.038912,339.04264 L419.101187,303.780554 C442.382394,299.182448 463.186229,287.676151 479.283541,271.482948 C495.429527,255.434367 506.918272,234.705183 511.544047,211.501084 L511.544047,211.501084 Z" id="Combined-Shape"></path>
                            <path d="M304.222831,587.915386 C313.24118,601.656871 328.741706,609.736831 345.171382,609.260639 C355.256809,608.968327 364.806256,605.477592 372.57612,599.531266 L372.506436,639.219608 C318.884469,649.8105 278.404837,697.048478 278.304217,753.792921 C278.190037,818.410135 330.479927,870.88545 395.097141,870.999996 C395.506551,871.000719 395.915473,870.999339 396.323897,870.995866 L397.304221,871 C454.048687,871 501.358193,830.604131 512.044047,777.001084 L512.044047,777.001084 L583.322547,777.000518 C582.075945,787.146502 580.007679,797.189695 577.130961,807.03005 L577.138538,807.002199 L576.565032,806.887294 C556.953233,803.094425 537.06026,812.018388 526.851359,829.188784 L526.541877,829.71698 C516.327357,847.409047 518.602421,869.655785 532.186495,884.912946 C518.813279,898.916073 503.365665,910.77869 486.38561,920.084614 C477.367262,906.343129 461.866735,898.263169 445.43706,898.739361 C429.007385,899.215553 414.000098,908.179741 405.791526,922.420525 C402.092566,928.827293 399.939593,936.008788 399.503862,943.393775 C380.146206,943.825485 360.837465,941.276737 342.255057,935.83695 C346.402869,915.831723 337.255078,895.422019 319.562372,885.20713 C301.869665,874.992241 279.620448,877.274874 264.369319,890.869598 C250.366467,877.497241 238.504734,862.049648 229.200514,845.069091 C246.293773,833.860028 254.267695,812.949274 248.977823,793.205226 C243.68795,773.461178 226.328,759.339294 205.920831,758.179445 C205.482347,738.820909 208.032021,719.510412 213.479947,700.928881 C233.481417,705.113663 253.906133,695.960607 264.095115,678.246388 C274.340011,660.56093 272.058644,638.294527 258.440347,623.055184 C271.804598,609.058545 287.246827,597.206047 304.222831,587.915386 Z M418.637814,565.999199 C428.677954,567.248923 438.615833,569.307855 448.353385,572.16305 C444.184526,592.169885 453.339364,612.590543 471.049054,622.787702 C488.729195,633.033665 510.993589,630.747065 526.223189,617.121202 C540.231067,630.489045 552.093432,645.937462 561.391994,662.921709 C544.324566,674.14229 536.37273,695.04076 541.664359,714.768525 C543.273331,720.766946 545.996467,726.2462 549.580688,731.00035 L512.044247,730.999918 C502.722284,684.23637 465.526474,647.524481 418.509351,638.916788 Z" id="Combined-Shape"></path>
                            <path d="M180.943292,282.591095 C183.02506,298.895243 193.414819,312.952447 208.390462,319.726744 C223.366105,326.501041 240.784207,325.022844 254.404771,315.821713 C260.537917,311.684866 265.621156,306.173982 269.250154,299.727411 C286.842094,307.817789 303.080468,318.573706 317.392345,331.615665 C304.87498,347.770182 304.151467,370.137365 315.598691,387.065927 C326.997962,404.025402 348.011445,411.730287 367.672904,406.15966 C372.803005,419.998933 376.282698,434.37827 378.051235,448.999604 L305.044247,448.999918 C294.358782,395.396372 247.049041,355 190.304221,355 C125.686905,355 73.3042208,407.382684 73.3042208,472 C73.3042208,536.617316 125.686905,589 190.304221,589 C247.048687,589 294.358193,548.604131 305.044047,495.001084 L305.044047,495.001084 L340.220758,495.000465 C339.617369,496.84858 339.123064,498.748659 338.745567,500.693456 C334.853569,520.744351 344.254815,541.030968 362.069031,551.022332 C353.96361,568.606476 343.208104,584.842984 330.177948,599.1651 L330.197915,599.143095 L329.731874,598.788705 C313.76759,586.78245 291.975897,586.082749 275.273191,597.040111 L274.763485,597.379183 C257.827043,608.802956 250.119529,629.795514 255.640515,649.463426 C237.482181,656.186922 218.397729,660.077183 199.056708,660.997725 C196.97494,644.693577 186.585181,630.636373 171.609538,623.862076 C156.633895,617.087779 139.215793,618.565976 125.595229,627.767107 C119.462083,631.903955 114.378844,637.414839 110.749846,643.861409 C93.1620514,635.76359 76.9247673,625.008395 62.6076549,611.973155 C75.1053978,595.810857 75.8304435,573.456609 64.4062568,556.519556 C52.9820701,539.582503 31.9839654,531.880705 12.316807,537.413907 C5.59318253,519.256466 1.70370645,500.172419 0.784915172,480.831695 C21.0619649,478.250247 37.3955496,462.951324 41.2962646,442.886563 C45.1969795,422.821803 35.7845858,402.519036 17.9511891,392.530657 C26.0433055,374.939101 36.8001018,358.700645 49.842272,344.387889 C65.9849871,356.917214 88.355036,357.644108 105.278235,346.189228 C122.23908,334.784711 129.94955,313.771715 124.389994,294.104816 C142.537426,287.383222 161.612603,283.499696 180.943292,282.591095 Z" id="Combined-Shape"></path>
                        </g>
                        <g id="Group-Copy" transform="translate(190.304221, 188.000000)" fill="#000000" fill-rule="nonzero">
                            <path id="Line" d="M206.092035,-50.9999186 C234.810797,-50.9490889 258.050748,-27.6267268 257.999919,1.09203525 C257.955143,26.3902064 239.852278,47.436966 215.909868,52.0569438 L215.090538,514.978455 C239.016444,519.683156 257.044694,540.793864 256.999919,566.092035 C256.949089,594.810797 233.626727,618.050748 204.907965,617.999919 C176.189203,617.949089 152.949252,594.626727 153.000081,565.907965 C153.044857,540.609794 171.147722,519.563034 195.090132,514.943056 L195.909462,52.0215448 C171.983556,47.3168444 153.955306,26.2061359 154.000081,0.907964746 C154.050911,-27.8107973 177.373273,-51.0507482 206.092035,-50.9999186 Z M173.00005,565.943363 C172.96877,583.616447 187.270279,597.96867 204.943363,597.99995 C222.616447,598.03123 236.96867,583.729721 236.99995,566.056637 C237.030787,548.633726 223.131742,534.438324 205.805098,534.009956 L204.300141,534.007477 C186.975798,534.378695 173.030882,548.523135 173.00005,565.943363 Z M206.056637,-30.9999499 C188.383553,-31.0312297 174.03133,-16.7297214 174.00005,0.943362921 C173.969213,18.3662742 187.868258,32.5616761 205.194902,32.9900438 L206.699859,32.9925227 C224.024202,32.6213047 237.969118,18.4768655 237.99995,1.05663708 C238.03123,-16.6164472 223.729721,-30.9686701 206.056637,-30.9999499 Z"></path>
                            <path id="Line-3" d="M524.5,-51.5 C553.218807,-51.5 576.5,-28.218807 576.5,0.5 C576.5,29.218807 553.218807,52.5 524.5,52.5 C499.201789,52.5 478.123022,34.4344139 473.460676,10.5002188 L257.539324,10.5002188 C252.876978,34.4344139 231.798211,52.5 206.5,52.5 C177.781193,52.5 154.5,29.218807 154.5,0.5 C154.5,-28.218807 177.781193,-51.5 206.5,-51.5 C231.798211,-51.5 252.876978,-33.4344139 257.539324,-9.50021881 L473.460676,-9.50021881 C478.123022,-33.4344139 499.201789,-51.5 524.5,-51.5 Z M206.5,-31.5 C188.826888,-31.5 174.5,-17.173112 174.5,0.5 C174.5,18.173112 188.826888,32.5 206.5,32.5 C224.173112,32.5 238.5,18.173112 238.5,0.5 C238.5,-17.173112 224.173112,-31.5 206.5,-31.5 Z M524.5,-31.5 C506.826888,-31.5 492.5,-17.173112 492.5,0.5 C492.5,18.173112 506.826888,32.5 524.5,32.5 C542.173112,32.5 556.5,18.173112 556.5,0.5 C556.5,-17.173112 542.173112,-31.5 524.5,-31.5 Z"></path>
                            <path id="Line-3-Copy" d="M525,514 C553.718807,514 577,537.281193 577,566 C577,594.718807 553.718807,618 525,618 C499.701789,618 478.623022,599.934414 473.960676,576.000219 L258.039324,576.000219 C253.376978,599.934414 232.298211,618 207,618 C178.281193,618 155,594.718807 155,566 C155,537.281193 178.281193,514 207,514 C232.298562,514 253.377564,532.066088 258.039519,556.000779 L473.960481,556.000779 C478.622436,532.066088 499.701438,514 525,514 Z M207,534 C189.326888,534 175,548.326888 175,566 C175,583.673112 189.326888,598 207,598 C224.673112,598 239,583.673112 239,566 C239,548.326888 224.673112,534 207,534 Z M525,534 C507.326888,534 493,548.326888 493,566 C493,583.673112 507.326888,598 525,598 C542.673112,598 557,583.673112 557,566 C557,548.326888 542.673112,534 525,534 Z"></path>
                            <path id="Line-3-Copy-2" d="M318,232 C346.718807,232 370,255.281193 370,284 C370,312.718807 346.718807,336 318,336 C292.701789,336 271.623022,317.934414 266.960676,294.000219 L51.0393242,294.000219 C46.3769778,317.934414 25.2982108,336 0,336 C-28.718807,336 -52,312.718807 -52,284 C-52,255.281193 -28.718807,232 0,232 C25.2985623,232 46.3775636,250.066088 51.0395186,274.000779 L266.960481,274.000779 C271.622436,250.066088 292.701438,232 318,232 Z M0,252 C-17.673112,252 -32,266.326888 -32,284 C-32,301.673112 -17.673112,316 0,316 C17.673112,316 32,301.673112 32,284 C32,266.326888 17.673112,252 0,252 Z M318,252 C300.326888,252 286,266.326888 286,284 C286,301.673112 300.326888,316 318,316 C335.673112,316 350,301.673112 350,284 C350,266.326888 335.673112,252 318,252 Z"></path>
                        </g>
                    </g>
                </g>
            </g>
        </g>
    </g>
</svg>