<?xml version="1.0" encoding="UTF-8"?>
<svg width="1440px" height="1440px" viewBox="0 0 1440 1440" version="1.1" xmlns="http://www.w3.org/2000/svg" xmlns:xlink="http://www.w3.org/1999/xlink">
    <title>Logo for me Copy 4</title>
    <g id="Logo-for-me-Copy-4" stroke="none" stroke-width="1" fill="none" fill-rule="evenodd">
        <g id="icon---tree" transform="translate(134.000000, 65.000000)" fill="#000000">
            <g transform="translate(0.172925, 0.913094)">
                <path d="M1036.0671,525.880676 C1029.17096,520.091423 992.828261,549.657965 985.104576,539.664612 C977.380891,529.671258 1016.75789,481.634244 1005.24133,485.631585 C993.72476,489.628926 994.276451,525.329319 953.175414,554.551262 C912.074378,583.773205 857.250008,610.169441 840.837178,602.795035 C824.424347,595.42063 884.07602,539.113254 887.524094,525.604997 C890.972167,512.096741 866.352922,546.2809 854.698433,539.388933 C843.043945,532.496965 844.354213,495.487099 840.906139,498.864163 C842.634665,522.707738 839.273255,546.646212 831.044649,569.093313 C814.631818,598.659855 826.355269,589.08002 775.254818,617.337087 C764.910598,622.9885 663.675158,678.331001 646.296867,657.10374 C628.918576,635.87648 648.29675,607.068055 676.43303,569.437912 C704.56931,531.807768 761.600447,513.612974 758.704065,506.445327 L733.60209,504.860175 L733.60209,467.919228 L711.465457,506.445327 C706.914,506.031809 698.500701,512.027821 687.053096,522.159014 C672.141951,510.744117 658.459869,497.809452 646.227905,483.563995 C645.469329,482.736959 648.158827,443.797341 646.227905,442.212189 C644.296984,440.627036 635.19407,472.674686 630.711574,468.194907 C615.677974,453.170417 601.885679,440.213518 599.816835,442.212189 C596.2998,445.589253 657.054856,498.174966 653.124053,540.00921 C649.193249,581.843454 584.162581,609.618083 584.162581,609.618083 C561.702949,624.140155 536.324113,633.551455 509.822115,637.185954 C446.680683,578.003748 392.732987,509.733095 349.76254,434.631024 C344.40823,419.500368 342.914965,403.273908 345.417967,387.421046 C348.038503,381.631793 389.13954,357.509906 391.622153,350.686858 L373.20944,354.063923 L364.865102,327.185249 L355.417381,357.923424 C354.382958,352.54769 327.350062,379.702042 325.557063,373.637111 C318.040263,375.291183 322.10899,374.601986 319.005724,359.853175 C315.902457,345.104365 325.901871,332.285305 323.143412,330.010955 C320.384953,327.736606 315.488689,341.175943 313.626729,340.004309 C311.764769,338.832674 307.420196,308.370177 307.420196,322.981148 C307.420196,337.59212 314.316344,367.641099 313.626729,398.792793 C312.937114,429.944486 401.621566,633.326452 391.829037,632.016978 C343.556007,655.656427 230.872963,571.091984 203.909028,543.455194 C176.945093,515.818403 194.047538,502.103388 193.70273,483.426155 C193.70273,471.985489 181.634473,479.428814 178.807052,478.601778 L157.015227,457.925875 L152.739616,414.024041 L141.912665,443.659502 L122.879299,426.016065 L171.152329,499.139842 L158.463418,534.633475 C141.429935,529.740178 133.016635,527.741507 136.602632,532.359126 C140.244112,536.257108 144.08828,539.960917 148.119198,543.455194 C151.98104,546.970097 32.0570413,588.666502 39.7807261,595.42063 C50.738247,594.639337 61.5935101,592.792752 72.1926176,589.907056 C74.6062691,589.424618 56.1245948,614.235702 60.2622831,613.339746 C64.0538906,611.340207 67.5568339,608.836309 70.6754652,605.896421 C71.9167717,604.862626 74.8131535,620.85199 77.9164197,618.233043 C79.0198033,617.337087 80.3990327,597.55714 83.0885301,595.627389 C85.7780275,593.697638 88.3296019,591.354369 92.1224828,588.735421 C94.5965842,586.700585 97.3935702,585.093293 100.397859,583.979964 C134.878595,576.536638 136.53367,549.520125 178.462245,570.196028 C225.372434,602.019073 268.865405,638.603086 308.247734,679.364796 C358.465203,702.224317 398.43478,742.857113 420.448048,793.426861 C424.954204,806.037345 427.286033,819.320715 427.344195,832.711076 L427.344195,1064.35011 C427.344195,1064.35011 429.688885,1120.45073 341.211317,1172.76076 C252.73375,1225.07079 97.5704391,1247.53861 73.4339241,1273.72809 C90.2145488,1276.94434 106.69634,1280.71195 122.879299,1285.03091 C256.026908,1319.15985 395.638911,1319.15985 528.78652,1285.03091 C661.934128,1250.90198 801.546131,1250.90198 934.69374,1285.03091 C957.588949,1291.16476 981.242733,1296.1959 1005.31029,1300.12432 C980.415196,1263.87257 827.389691,1231.68708 733.671051,1172.76076 C639.952411,1113.83444 630.228844,1064.35011 630.228844,1064.35011 L630.228844,832.711076 C638.522292,763.592223 684.219728,704.650707 749.118421,679.364796 C749.118421,679.364796 1043.03221,531.945608 1036.0671,525.880676 Z" id="secondary" fill-rule="nonzero"></path>
                <path d="M164.18722,331.25151 C164.18722,328.356883 189.702965,374.808745 189.702965,374.808745 C190.810892,371.263417 190.810892,367.464764 189.702965,363.919436 C178.918273,342.632403 169.699029,320.588729 162.118376,297.963306 C161.880791,143.541169 280.152864,14.7301748 434.119843,1.72448626 C588.086821,-11.2812023 726.31437,95.8631056 752.014802,248.13438 C753.945724,259.161528 686.639328,280.940146 694.087167,297.963306 C696.983548,293.897045 703.465927,271.980588 781.323428,248.13438 C1020.48181,219.188116 1080.20244,379.702042 1080.20244,513.750813 C1080.20244,647.847771 971.429459,756.5549 837.251181,756.5549 L216.597939,756.5549 C107.456976,756.639807 15.4026014,675.340236 2.06194833,567.083294 C-11.2787047,458.826352 58.286968,357.634252 164.18722,331.25151 Z" id="primary" stroke="#000000" stroke-width="18.573014"></path>
            </g>
        </g>
        <g id="Group-2" transform="translate(193.695779, 195.000000)" fill="#797979" fill-rule="nonzero">
            <path d="M417.316221,442.981601 L417.316221,442.981601 C398.504907,438.3944 380.508848,430.948127 363.956221,420.902705 C373.137775,402.657905 369.587629,380.582428 355.148698,366.13586 C340.709766,351.689293 318.635243,348.12655 300.384221,357.297085 C290.324712,340.752171 282.877173,322.754853 278.304221,303.939753 C297.719364,297.563464 310.831815,279.425234 310.798621,258.9908 C310.822467,238.55518 297.715078,220.416528 278.304221,214.023449 C282.876333,195.208075 290.323924,177.210631 300.384221,160.666117 C306.997673,163.981256 314.293516,165.707475 321.691421,165.707465 C338.128587,165.719025 353.395445,157.204428 362.022677,143.214007 C370.649909,129.223587 371.402721,111.759757 364.011421,97.0788961 C380.545372,87.0225758 398.53105,79.5754622 417.334621,75 C423.72313,94.4134631 441.865718,107.522386 462.304221,107.492775 C482.739676,107.525968 500.878813,94.4141729 507.255421,75 C526.071462,79.5727237 544.069679,87.0198897 560.615421,97.0788961 C551.416296,115.331947 554.966231,137.427047 569.420142,151.880235 C583.874053,166.333423 605.970257,169.883181 624.224221,160.684516 C634.277704,177.232485 641.724846,195.228844 646.304221,214.041848 C626.90528,220.452351 613.803853,238.579422 613.803853,259.0092 C613.803853,279.438977 626.90528,297.566048 646.304221,303.976551 C641.72401,322.789283 634.27692,340.785517 624.224221,357.333883 C617.610769,354.018744 610.314925,352.292525 602.917021,352.292535 C586.479855,352.280975 571.212997,360.795572 562.585765,374.785993 C553.958533,388.776413 553.20572,406.240243 560.597021,420.921104 C544.047827,430.973301 526.050693,438.420019 507.237021,443 C500.815969,423.607266 482.68726,410.513634 462.258221,410.513634 C441.829181,410.513634 423.700473,423.607266 417.279421,443 L417.316221,442.981601 Z M462.562018,183.207254 C432.001891,183.199833 404.446784,201.603097 392.746786,229.834841 C381.046788,258.066586 387.506277,290.566416 409.112926,312.178313 C430.719574,333.790211 463.217836,340.257595 491.452422,328.564456 C519.687009,316.871316 538.096967,289.320682 538.096967,258.760555 C538.04643,217.061734 504.260826,183.267923 462.562018,183.207254 Z" id="primary" transform="translate(462.304221, 259.000000) scale(-1, 1) rotate(52.000000) translate(-462.304221, -259.000000) "></path>
            <path d="M416.316221,1007.9816 L416.316221,1007.9816 C397.504907,1003.3944 379.508848,995.948127 362.956221,985.902705 C372.137775,967.657905 368.587629,945.582428 354.148698,931.13586 C339.709766,916.689293 317.635243,913.12655 299.384221,922.297085 C289.324712,905.752171 281.877173,887.754853 277.304221,868.939753 C296.719364,862.563464 309.831815,844.425234 309.798621,823.9908 C309.822467,803.55518 296.715078,785.416528 277.304221,779.023449 C281.876333,760.208075 289.323924,742.210631 299.384221,725.666117 C305.997673,728.981256 313.293516,730.707475 320.691421,730.707465 C337.128587,730.719025 352.395445,722.204428 361.022677,708.214007 C369.649909,694.223587 370.402721,676.759757 363.011421,662.078896 C379.545372,652.022576 397.53105,644.575462 416.334621,640 C422.72313,659.413463 440.865718,672.522386 461.304221,672.492775 C481.739676,672.525968 499.878813,659.414173 506.255421,640 C525.071462,644.572724 543.069679,652.01989 559.615421,662.078896 C550.416296,680.331947 553.966231,702.427047 568.420142,716.880235 C582.874053,731.333423 604.970257,734.883181 623.224221,725.684516 C633.277704,742.232485 640.724846,760.228844 645.304221,779.041848 C625.90528,785.452351 612.803853,803.579422 612.803853,824.0092 C612.803853,844.438977 625.90528,862.566048 645.304221,868.976551 C640.72401,887.789283 633.27692,905.785517 623.224221,922.333883 C616.610769,919.018744 609.314925,917.292525 601.917021,917.292535 C585.479855,917.280975 570.212997,925.795572 561.585765,939.785993 C552.958533,953.776413 552.20572,971.240243 559.597021,985.921104 C543.047827,995.973301 525.050693,1003.42002 506.237021,1008 C499.815969,988.607266 481.68726,975.513634 461.258221,975.513634 C440.829181,975.513634 422.700473,988.607266 416.279421,1008 L416.316221,1007.9816 Z M461.562018,748.207254 C431.001891,748.199833 403.446784,766.603097 391.746786,794.834841 C380.046788,823.066586 386.506277,855.566416 408.112926,877.178313 C429.719574,898.790211 462.217836,905.257595 490.452422,893.564456 C518.687009,881.871316 537.096967,854.320682 537.096967,823.760555 C537.04643,782.061734 503.260826,748.267923 461.562018,748.207254 Z" id="primary-copy" transform="translate(461.304221, 824.000000) scale(-1, 1) rotate(60.000000) translate(-461.304221, -824.000000) "></path>
            <path d="M211.012,725.776011 L211.012,725.776011 C192.200686,721.18881 174.204627,713.742537 157.652,703.697115 C166.833554,685.452316 163.283408,663.376838 148.844477,648.93027 C134.405545,634.483703 112.331022,630.92096 94.08,640.091495 C84.0204907,623.546581 76.5729523,605.549263 72,586.734163 C91.4151436,580.357874 104.527594,562.219644 104.4944,541.785211 C104.518247,521.34959 91.4108568,503.210938 72,496.817859 C76.5721124,478.002485 84.0197027,460.005041 94.08,443.460527 C100.693452,446.775666 107.989295,448.501885 115.3872,448.501875 C131.824366,448.513435 147.091224,439.998838 155.718456,426.008417 C164.345688,412.017997 165.098501,394.554167 157.7072,379.873306 C174.241151,369.816986 192.226829,362.369872 211.0304,357.79441 C217.418909,377.207873 235.561497,390.316796 256,390.287185 C276.435455,390.320378 294.574592,377.208583 300.9512,357.79441 C319.767241,362.367134 337.765459,369.8143 354.3112,379.873306 C345.112075,398.126357 348.66201,420.221457 363.115921,434.674645 C377.569832,449.127833 399.666037,452.677591 417.92,443.478926 C427.973483,460.026895 435.420625,478.023254 440,496.836258 C420.601059,503.246761 407.499632,521.373832 407.499632,541.80361 C407.499632,562.233387 420.601059,580.360458 440,586.770961 C435.41979,605.583693 427.9727,623.579927 417.92,640.128293 C411.306548,636.813154 404.010705,635.086936 396.6128,635.086945 C380.175634,635.075385 364.908776,643.589983 356.281544,657.580403 C347.654312,671.570823 346.901499,689.034653 354.2928,703.715514 C337.743606,713.767711 319.746472,721.214429 300.9328,725.79441 C294.511748,706.401676 276.383039,693.308044 255.954,693.308044 C235.524961,693.308044 217.396252,706.401676 210.9752,725.79441 L211.012,725.776011 Z M256.257525,466.001664 C225.640653,465.994243 198.034381,484.397507 186.312658,512.629251 C174.590935,540.860996 181.062418,573.360826 202.709187,594.972723 C224.355955,616.584621 256.91456,623.052005 285.201574,611.358866 C313.488587,599.665727 331.93273,572.115092 331.93273,541.554965 C331.882099,499.856144 298.033761,466.062333 256.257525,466.001664 Z" id="primary-copy-4" transform="translate(256.000000, 541.794410) scale(-1, 1) rotate(34.000000) translate(-256.000000, -541.794410) "></path>
        </g>
        <g id="Group" transform="translate(450.000000, 453.000000)" fill="#000000" fill-rule="nonzero">
            <path id="Line" d="M206.207079,-115.999817 C270.824294,-115.88545 323.114183,-63.4101352 322.999817,1.20707932 C322.899384,57.9518103 282.419341,105.18998 228.796966,115.780554 L228.204311,451.301101 C281.788269,462.081882 322.100249,509.462767 321.999817,566.207079 C321.88545,630.824294 269.410135,683.114183 204.792921,682.999817 C140.175706,682.88545 87.8858165,630.410135 88.0001833,565.792921 C88.1006164,509.04819 128.580659,461.81002 182.203034,451.219446 L182.795689,115.698899 C129.211731,104.918118 88.8997508,57.5372332 89.0001833,0.792920678 C89.11455,-63.8242938 141.589865,-116.114183 206.207079,-115.999817 Z M134.000111,565.874336 C133.930709,605.086492 165.662181,636.930487 204.874336,636.999889 C244.086492,637.069291 275.930487,605.337819 275.999889,566.125664 C276.068295,527.475884 245.241456,495.984434 206.808104,495.022632 L203.433155,495.016892 C165.001273,495.847868 134.068512,527.227908 134.000111,565.874336 Z M206.125664,-69.9998888 C166.913508,-70.0692908 135.069513,-38.3378193 135.000111,0.87433648 C134.931705,39.5241163 165.758544,71.0155657 204.191896,71.9773676 L207.566845,71.9831078 C245.998727,71.1521316 276.931488,39.7720918 276.999889,1.12566352 C277.069291,-38.0864923 245.337819,-69.9304867 206.125664,-69.9998888 Z"></path>
            <path id="Line-3" d="M524.5,-116.5 C589.117316,-116.5 641.5,-64.1173157 641.5,0.5 C641.5,65.1173157 589.117316,117.5 524.5,117.5 C467.755534,117.5 420.446028,77.1041309 409.760174,23.5010835 L321.239826,23.5010835 C310.553972,77.1041309 263.244466,117.5 206.5,117.5 C141.882684,117.5 89.5,65.1173157 89.5,0.5 C89.5,-64.1173157 141.882684,-116.5 206.5,-116.5 C263.244466,-116.5 310.553972,-76.1041309 321.239826,-22.5010835 L409.760174,-22.5010835 C420.446028,-76.1041309 467.755534,-116.5 524.5,-116.5 Z M206.5,-70.5 C167.287783,-70.5 135.5,-38.7122172 135.5,0.5 C135.5,39.7122172 167.287783,71.5 206.5,71.5 C245.712217,71.5 277.5,39.7122172 277.5,0.5 C277.5,-38.7122172 245.712217,-70.5 206.5,-70.5 Z M524.5,-70.5 C485.287783,-70.5 453.5,-38.7122172 453.5,0.5 C453.5,39.7122172 485.287783,71.5 524.5,71.5 C563.712217,71.5 595.5,39.7122172 595.5,0.5 C595.5,-38.7122172 563.712217,-70.5 524.5,-70.5 Z"></path>
            <path id="Line-3-Copy" d="M525,449 C589.617316,449 642,501.382684 642,566 C642,630.617316 589.617316,683 525,683 C468.255534,683 420.946028,642.604131 410.260174,589.001084 L321.739826,589.001084 C311.053972,642.604131 263.744466,683 207,683 C142.382684,683 90,630.617316 90,566 C90,501.382684 142.382684,449 207,449 C263.74482,449 311.054561,489.396372 321.740026,542.999918 L410.259974,542.999918 C420.945439,489.396372 468.25518,449 525,449 Z M207,495 C167.787783,495 136,526.787783 136,566 C136,605.212217 167.787783,637 207,637 C246.212217,637 278,605.212217 278,566 C278,526.787783 246.212217,495 207,495 Z M525,495 C485.787783,495 454,526.787783 454,566 C454,605.212217 485.787783,637 525,637 C564.212217,637 596,605.212217 596,566 C596,526.787783 564.212217,495 525,495 Z"></path>
            <path id="Line-3-Copy-2" d="M318,167 C382.617316,167 435,219.382684 435,284 C435,348.617316 382.617316,401 318,401 C261.255534,401 213.946028,360.604131 203.260174,307.001084 L114.739826,307.001084 C104.053972,360.604131 56.7444664,401 0,401 C-64.6173157,401 -117,348.617316 -117,284 C-117,219.382684 -64.6173157,167 0,167 C56.7448199,167 104.054561,207.396372 114.740026,260.999918 L203.259974,260.999918 C213.945439,207.396372 261.25518,167 318,167 Z M0,213 C-39.2122172,213 -71,244.787783 -71,284 C-71,323.212217 -39.2122172,355 0,355 C39.2122172,355 71,323.212217 71,284 C71,244.787783 39.2122172,213 0,213 Z M318,213 C278.787783,213 247,244.787783 247,284 C247,323.212217 278.787783,355 318,355 C357.212217,355 389,323.212217 389,284 C389,244.787783 357.212217,213 318,213 Z"></path>
        </g>
        <g id="Group-Copy" transform="translate(450.000000, 453.000000)" fill="#797979" fill-rule="nonzero">
            <path id="Line" d="M206.092035,-50.9999186 C234.810797,-50.9490889 258.050748,-27.6267268 257.999919,1.09203525 C257.955143,26.3902064 239.852278,47.436966 215.909868,52.0569438 L215.090538,514.978455 C239.016444,519.683156 257.044694,540.793864 256.999919,566.092035 C256.949089,594.810797 233.626727,618.050748 204.907965,617.999919 C176.189203,617.949089 152.949252,594.626727 153.000081,565.907965 C153.044857,540.609794 171.147722,519.563034 195.090132,514.943056 L195.909462,52.0215448 C171.983556,47.3168444 153.955306,26.2061359 154.000081,0.907964746 C154.050911,-27.8107973 177.373273,-51.0507482 206.092035,-50.9999186 Z M173.00005,565.943363 C172.96877,583.616447 187.270279,597.96867 204.943363,597.99995 C222.616447,598.03123 236.96867,583.729721 236.99995,566.056637 C237.030787,548.633726 223.131742,534.438324 205.805098,534.009956 L204.300141,534.007477 C186.975798,534.378695 173.030882,548.523135 173.00005,565.943363 Z M206.056637,-30.9999499 C188.383553,-31.0312297 174.03133,-16.7297214 174.00005,0.943362921 C173.969213,18.3662742 187.868258,32.5616761 205.194902,32.9900438 L206.699859,32.9925227 C224.024202,32.6213047 237.969118,18.4768655 237.99995,1.05663708 C238.03123,-16.6164472 223.729721,-30.9686701 206.056637,-30.9999499 Z"></path>
            <path id="Line-3" d="M524.5,-51.5 C553.218807,-51.5 576.5,-28.218807 576.5,0.5 C576.5,29.218807 553.218807,52.5 524.5,52.5 C499.201789,52.5 478.123022,34.4344139 473.460676,10.5002188 L257.539324,10.5002188 C252.876978,34.4344139 231.798211,52.5 206.5,52.5 C177.781193,52.5 154.5,29.218807 154.5,0.5 C154.5,-28.218807 177.781193,-51.5 206.5,-51.5 C231.798211,-51.5 252.876978,-33.4344139 257.539324,-9.50021881 L473.460676,-9.50021881 C478.123022,-33.4344139 499.201789,-51.5 524.5,-51.5 Z M206.5,-31.5 C188.826888,-31.5 174.5,-17.173112 174.5,0.5 C174.5,18.173112 188.826888,32.5 206.5,32.5 C224.173112,32.5 238.5,18.173112 238.5,0.5 C238.5,-17.173112 224.173112,-31.5 206.5,-31.5 Z M524.5,-31.5 C506.826888,-31.5 492.5,-17.173112 492.5,0.5 C492.5,18.173112 506.826888,32.5 524.5,32.5 C542.173112,32.5 556.5,18.173112 556.5,0.5 C556.5,-17.173112 542.173112,-31.5 524.5,-31.5 Z"></path>
            <path id="Line-3-Copy" d="M525,514 C553.718807,514 577,537.281193 577,566 C577,594.718807 553.718807,618 525,618 C499.701789,618 478.623022,599.934414 473.960676,576.000219 L258.039324,576.000219 C253.376978,599.934414 232.298211,618 207,618 C178.281193,618 155,594.718807 155,566 C155,537.281193 178.281193,514 207,514 C232.298562,514 253.377564,532.066088 258.039519,556.000779 L473.960481,556.000779 C478.622436,532.066088 499.701438,514 525,514 Z M207,534 C189.326888,534 175,548.326888 175,566 C175,583.673112 189.326888,598 207,598 C224.673112,598 239,583.673112 239,566 C239,548.326888 224.673112,534 207,534 Z M525,534 C507.326888,534 493,548.326888 493,566 C493,583.673112 507.326888,598 525,598 C542.673112,598 557,583.673112 557,566 C557,548.326888 542.673112,534 525,534 Z"></path>
            <path id="Line-3-Copy-2" d="M318,232 C346.718807,232 370,255.281193 370,284 C370,312.718807 346.718807,336 318,336 C292.701789,336 271.623022,317.934414 266.960676,294.000219 L51.0393242,294.000219 C46.3769778,317.934414 25.2982108,336 0,336 C-28.718807,336 -52,312.718807 -52,284 C-52,255.281193 -28.718807,232 0,232 C25.2985623,232 46.3775636,250.066088 51.0395186,274.000779 L266.960481,274.000779 C271.622436,250.066088 292.701438,232 318,232 Z M0,252 C-17.673112,252 -32,266.326888 -32,284 C-32,301.673112 -17.673112,316 0,316 C17.673112,316 32,301.673112 32,284 C32,266.326888 17.673112,252 0,252 Z M318,252 C300.326888,252 286,266.326888 286,284 C286,301.673112 300.326888,316 318,316 C335.673112,316 350,301.673112 350,284 C350,266.326888 335.673112,252 318,252 Z"></path>
        </g>
    </g>
</svg>