<?xml version="1.0" encoding="UTF-8"?>
<svg width="970px" height="1091px" viewBox="0 0 970 1091" version="1.1" xmlns="http://www.w3.org/2000/svg" xmlns:xlink="http://www.w3.org/1999/xlink">
    <title>myLogo Copy</title>
    <defs>
        <filter id="filter-1">
            <feColorMatrix in="SourceGraphic" type="matrix" values="0 0 0 0 1.000000 0 0 0 0 1.000000 0 0 0 0 1.000000 0 0 0 1.000000 0"></feColorMatrix>
        </filter>
    </defs>
    <g id="Graphics" stroke="none" stroke-width="1" fill="none" fill-rule="evenodd">
        <g id="myLogo-Copy" transform="translate(-214.000000, -125.000000)" filter="url(#filter-1)">
            <g transform="translate(720.000000, 696.000000) scale(-1, 1) translate(-720.000000, -696.000000) translate(266.000000, 176.000000)">
                <g id="Group" transform="translate(0.695779, 0.000000)" fill="#000000" fill-rule="nonzero">
                    <path d="M211.628172,569.552889 L264.98446,580.690156 C271.310048,639.338613 320.97474,685 381.304221,685 C437.481243,685 484.411059,645.408009 495.712511,592.605186 L496.044047,591.001084 L531.220758,591.000465 C530.617369,592.84858 530.123064,594.748659 529.745567,596.693456 C525.853569,616.744351 535.254815,637.030968 553.069031,647.022332 C545.139815,664.224212 534.674482,680.136412 522.024512,694.22834 L521.197915,695.143095 L520.731874,694.788705 C513.447119,689.310061 504.948957,686.185715 496.27462,685.448969 C505.414909,698.255771 520.363045,705.718822 536.171382,705.260639 C546.256809,704.968327 555.806256,701.477592 563.57612,695.531266 L563.506436,735.219608 C509.884469,745.8105 469.404837,793.048478 469.304217,849.792921 C469.190037,914.410135 521.479927,966.88545 586.097141,966.999996 C586.506551,967.000719 586.915473,966.999339 587.323897,966.995866 L588.304221,967 C644.481243,967 691.411059,927.408009 702.712511,874.605186 L703.044047,873.001084 L774.322547,873.000518 C773.138275,882.639203 771.212452,892.185119 768.556404,901.552488 L768.138,903.002 L767.565032,902.887294 C747.953233,899.094425 728.06026,908.018388 717.851359,925.188784 L717.541877,925.71698 C707.327357,943.409047 709.602421,965.655785 723.186495,980.912946 C709.813279,994.916073 694.365665,1006.77869 677.38561,1016.08461 C668.367262,1002.34313 652.866735,994.263169 636.43706,994.739361 C620.007385,995.215553 605.000098,1004.17974 596.791526,1018.42052 C593.092566,1024.82729 590.939593,1032.00879 590.503862,1039.39378 C571.146206,1039.82549 551.837465,1037.27674 533.255057,1031.83695 C537.402869,1011.83172 528.255078,991.422019 510.562372,981.20713 C492.869665,970.992241 470.620448,973.274874 455.369319,986.869598 C441.366467,973.497241 429.504734,958.049648 420.200514,941.069091 C437.293773,929.860028 445.267695,908.949274 439.977823,889.205226 C434.68795,869.461178 417.328,855.339294 396.920831,854.179445 C396.482347,834.820909 399.032021,815.510412 404.479947,796.928881 C424.481417,801.113663 444.906133,791.960607 455.095115,774.246388 C465.340011,756.56093 463.058644,734.294527 449.440347,719.055184 C462.158069,705.735668 476.757578,694.357854 492.769892,685.281703 C483.570691,685.181586 474.32991,687.754716 466.273191,693.040111 L465.763485,693.379183 C448.827043,704.802956 441.119529,725.795514 446.640515,745.463426 C428.482181,752.186922 409.397729,756.077183 390.056708,756.997725 C387.97494,740.693577 377.585181,726.636373 362.609538,719.862076 C347.633895,713.087779 330.215793,714.565976 316.595229,723.767107 C310.462083,727.903955 305.378844,733.414839 301.749846,739.861409 C284.162051,731.76359 267.924767,721.008395 253.607655,707.973155 C266.105398,691.810857 266.830443,669.456609 255.406257,652.519556 C243.98207,635.582503 222.983965,627.880705 203.316807,633.413907 C196.593183,615.256466 192.703706,596.172419 191.784915,576.831695 C199.032312,575.909037 205.775938,573.361746 211.628172,569.552889 Z M609.637814,661.999199 C619.677954,663.248923 629.615833,665.307855 639.353385,668.16305 C635.184526,688.169885 644.339364,708.590543 662.049054,718.787702 C679.729195,729.033665 701.993589,726.747065 717.223189,713.121202 C731.231067,726.489045 743.093432,741.937462 752.391994,758.921709 C735.324566,770.14229 727.37273,791.04076 732.664359,810.768525 C734.273331,816.766946 736.996467,822.2462 740.580688,827.00035 L703.044247,826.999918 C693.722284,780.23637 656.526474,743.524481 609.509351,734.916788 L609.637814,661.999199 Z M371.943292,378.591095 C374.02506,394.895243 384.414819,408.952447 399.390462,415.726744 C414.366105,422.501041 431.784207,421.022844 445.404771,411.821713 C451.537917,407.684866 456.621156,402.173982 460.250154,395.727411 C477.842094,403.817789 494.080468,414.573706 508.392345,427.615665 C495.87498,443.770182 495.151467,466.137365 506.598691,483.065927 C517.997962,500.025402 539.011445,507.730287 558.672904,502.15966 C563.803005,515.998933 567.282698,530.37827 569.051235,544.999604 L496.044247,544.999918 C485.358782,491.396372 438.049041,451 381.304221,451 C326.204996,451 280.001552,489.087362 267.585567,540.370407 L233.052169,533.164216 C234.330416,515.053185 225.088484,497.56906 208.951189,488.530657 C217.043305,470.939101 227.800102,454.700645 240.842272,440.387889 C256.984987,452.917214 279.355036,453.644108 296.278235,442.189228 C313.23908,430.784711 320.94955,409.771715 315.389994,390.104816 C333.537426,383.383222 352.612603,379.499696 371.943292,378.591095 Z M609.503969,96.8649151 C628.734962,99.123113 647.502336,104.334664 665.143926,112.315691 C658.231225,131.547628 664.454963,153.043661 680.573133,165.606294 C696.65525,178.213145 719.021201,179.047403 735.998941,167.673696 C748.010052,182.860964 757.606969,199.809959 764.451287,217.923027 C747.518141,225.935239 737.045016,243.075915 737.350161,261.500489 L702.544247,261.499918 C691.858782,207.896372 644.549041,167.5 587.804221,167.5 C555.381473,167.5 526.039023,180.688323 504.84873,201.993108 C483.562801,223.13809 470.361704,252.418285 470.304404,284.792921 C470.204976,340.96979 509.713753,387.969564 562.4964,399.364523 L564.09991,399.698899 L563.969936,472.997875 C545.137066,470.662386 526.761833,465.500449 509.464515,457.684309 C516.35615,438.451035 510.137867,416.96683 494.038983,404.389003 C477.940098,391.811176 455.589728,390.975102 438.595002,402.314976 C426.589497,387.123938 416.993091,370.175845 410.142656,352.065645 C428.629565,343.344589 439.4361,323.747093 436.945548,303.458985 C434.454997,283.170877 419.229378,266.770388 399.182231,262.781697 C401.442202,243.550532 406.654564,224.78281 414.63552,207.140318 C433.859929,214.06804 455.359732,207.846632 467.914899,191.722839 C480.521431,175.635308 481.361151,153.268095 469.996292,136.28176 C485.17844,124.28128 502.119935,114.693273 520.22374,107.855631 C527.241877,122.718496 541.467041,132.877079 557.803097,134.69209 C574.139153,136.507101 590.247963,129.718763 600.358584,116.758982 C604.913196,110.929359 608.044687,104.11739 609.503969,96.8649151 Z M775.395846,307.501194 C773.100955,326.61649 767.903072,345.270572 759.981079,362.819356 L759.992231,362.791915 L759.440526,362.599228 C740.547452,356.113836 719.606101,362.182384 707.106895,377.764875 L706.726914,378.244859 C694.149542,394.343162 693.306317,416.690024 704.634806,433.689241 C689.442878,445.694899 672.494642,455.292177 654.384702,462.144369 C647.366564,447.281504 633.141401,437.122921 616.805345,435.30791 C614.540372,435.056261 612.279767,434.969998 610.038912,435.04264 L610.101187,399.780554 C633.094972,395.239215 653.672176,383.959204 669.685197,368.080549 L670.283541,367.482948 C686.230194,351.632498 697.63389,331.216302 702.369588,308.359359 L702.544047,307.501084 L775.395846,307.501194 Z" id="Combined-Shape"></path>
                    <g id="Group-Copy" transform="translate(0.304221, 0.000000)">
                        <path id="Line" d="M587.092035,233.000081 C615.810797,233.050911 639.050748,256.373273 638.999919,285.092035 C638.955143,310.390206 620.852278,331.436966 596.909868,336.056944 L596.090538,798.978455 C620.016444,803.683156 638.044694,824.793864 637.999919,850.092035 C637.949089,878.810797 614.626727,902.050748 585.907965,901.999919 C557.189203,901.949089 533.949252,878.626727 534.000081,849.907965 C534.044857,824.609794 552.147722,803.563034 576.090132,798.943056 L576.909462,336.021545 C552.983556,331.316844 534.955306,310.206136 535.000081,284.907965 C535.050911,256.189203 558.373273,232.949252 587.092035,233.000081 Z M554.00005,849.943363 C553.96877,867.616447 568.270279,881.96867 585.943363,881.99995 C603.616447,882.03123 617.96867,867.729721 617.99995,850.056637 C618.030787,832.633726 604.131742,818.438324 586.805098,818.009956 L585.300141,818.007477 C567.975798,818.378695 554.030882,832.523135 554.00005,849.943363 Z M587.056637,253.00005 C569.383553,252.96877 555.03133,267.270279 555.00005,284.943363 C554.969213,302.366274 568.868258,316.561676 586.194902,316.990044 L587.699859,316.992523 C605.024202,316.621305 618.969118,302.476865 618.99995,285.056637 C619.03123,267.383553 604.729721,253.03133 587.056637,253.00005 Z"></path>
                        <path id="Line-3" d="M905.5,232.5 C934.218807,232.5 957.5,255.781193 957.5,284.5 C957.5,313.218807 934.218807,336.5 905.5,336.5 C880.201789,336.5 859.123022,318.434414 854.460676,294.500219 L638.539324,294.500219 C633.876978,318.434414 612.798211,336.5 587.5,336.5 C558.781193,336.5 535.5,313.218807 535.5,284.5 C535.5,255.781193 558.781193,232.5 587.5,232.5 C612.798562,232.5 633.877564,250.566088 638.539519,274.500779 L854.460481,274.500779 C859.122436,250.566088 880.201438,232.5 905.5,232.5 Z M587.5,252.5 C569.826888,252.5 555.5,266.826888 555.5,284.5 C555.5,302.173112 569.826888,316.5 587.5,316.5 C605.173112,316.5 619.5,302.173112 619.5,284.5 C619.5,266.826888 605.173112,252.5 587.5,252.5 Z M905.5,252.5 C887.826888,252.5 873.5,266.826888 873.5,284.5 C873.5,302.173112 887.826888,316.5 905.5,316.5 C923.173112,316.5 937.5,302.173112 937.5,284.5 C937.5,266.826888 923.173112,252.5 905.5,252.5 Z"></path>
                        <path id="Line-3-Copy" d="M906,798 C934.718807,798 958,821.281193 958,850 C958,878.718807 934.718807,902 906,902 C880.701789,902 859.623022,883.934414 854.960676,860.000219 L639.039324,860.000219 C634.376978,883.934414 613.298211,902 588,902 C559.281193,902 536,878.718807 536,850 C536,821.281193 559.281193,798 588,798 C613.298562,798 634.377564,816.066088 639.039519,840.000779 L854.960481,840.000779 C859.622436,816.066088 880.701438,798 906,798 Z M588,818 C570.326888,818 556,832.326888 556,850 C556,867.673112 570.326888,882 588,882 C605.673112,882 620,867.673112 620,850 C620,832.326888 605.673112,818 588,818 Z M906,818 C888.326888,818 874,832.326888 874,850 C874,867.673112 888.326888,882 906,882 C923.673112,882 938,867.673112 938,850 C938,832.326888 923.673112,818 906,818 Z"></path>
                        <path id="Line-3-Copy-2" d="M699,516 C727.718807,516 751,539.281193 751,568 C751,596.718807 727.718807,620 699,620 C673.701789,620 652.623022,601.934414 647.960676,578.000219 L432.039324,578.000219 C427.376978,601.934414 406.298211,620 381,620 C352.281193,620 329,596.718807 329,568 C329,539.281193 352.281193,516 381,516 C406.298562,516 427.377564,534.066088 432.039519,558.000779 L647.960481,558.000779 C652.622436,534.066088 673.701438,516 699,516 Z M381,536 C363.326888,536 349,550.326888 349,568 C349,585.673112 363.326888,600 381,600 C398.673112,600 413,585.673112 413,568 C413,550.326888 398.673112,536 381,536 Z M699,536 C681.326888,536 667,550.326888 667,568 C667,585.673112 681.326888,600 699,600 C716.673112,600 731,585.673112 731,568 C731,550.326888 716.673112,536 699,536 Z"></path>
                        <path id="Line-2-Copy" d="M905.960381,-50.9999849 C934.67918,-51.0218659 957.978104,-27.7584177 957.999985,0.960380964 C958.021866,29.6791796 934.758418,52.9781039 906.039619,52.9999849 C880.741384,53.0192598 859.648838,34.9696941 854.968292,11.0390138 L381.007619,11.3999971 L371.007622,11.4076161 L370.992384,-8.59237805 L380.992381,-8.5999971 L854.953071,-8.96132882 C859.597181,-32.8990693 880.662178,-50.9807101 905.960381,-50.9999849 Z M905.975619,-30.9999907 C888.480587,-30.9866612 874.275382,-16.9362083 874.003955,0.491182962 L874.004,1.504 L874.0047,1.55355604 C874.300564,18.9823742 888.528005,33.0133213 906.024381,32.9999907 C923.697488,32.9865255 938.013456,18.6487259 937.999991,0.975619055 C937.986525,-16.6974878 923.648726,-31.0134559 905.975619,-30.9999907 Z"></path>
                        <path id="Line-4-Copy" d="M378.417195,-8.49958662 L388.417154,-8.47095494 L388.35989,11.5289631 L378.359931,11.5003314 C131.44165,10.7933598 10.5,101.033042 10.5,283.459018 C10.5,453.076467 115.197513,543.110955 328.744044,555.123279 C333.917534,531.96771 354.472583,514.761431 378.919575,514.50307 L379.776371,514.500963 L380.636233,514.512788 C409.348183,515.140312 432.115109,538.924655 431.487585,567.636606 C430.860061,596.348556 407.075717,619.115481 378.363767,618.487957 C352.978696,617.933145 332.240757,599.277011 328.20942,575.117943 C104.456426,562.653094 -9.5,464.909533 -9.5,283.459018 C-9.5,88.4975159 121.484059,-9.23523251 378.417195,-8.49958662 Z M347.780015,562.255022 L347.527944,567.864279 C348.225466,584.595607 361.824481,598.121701 378.80078,598.492732 C396.469672,598.878901 411.106191,584.868485 411.49236,567.199593 C411.878529,549.5307 397.868113,534.894181 380.19922,534.508013 C363.730369,534.148072 349.895972,546.295542 347.780015,562.255022 Z"></path>
                    </g>
                </g>
            </g>
        </g>
    </g>
</svg>