<?xml version="1.0" encoding="UTF-8"?>
<svg width="1054px" height="1152px" viewBox="0 0 1054 1152" version="1.1" xmlns="http://www.w3.org/2000/svg" xmlns:xlink="http://www.w3.org/1999/xlink">
    <title>myLogo Copy</title>
    <defs>
        <filter id="filter-1">
            <feColorMatrix in="SourceGraphic" type="matrix" values="0 0 0 0 1.000000 0 0 0 0 1.000000 0 0 0 0 1.000000 0 0 0 1.000000 0"></feColorMatrix>
        </filter>
    </defs>
    <g id="Graphics" stroke="none" stroke-width="1" fill="none" fill-rule="evenodd">
        <g id="myLogo-Copy" transform="translate(-210.000000, -64.000000)" filter="url(#filter-1)">
            <g transform="translate(736.500000, 640.000000) scale(-1, 1) translate(-736.500000, -640.000000) translate(210.000000, 64.000000)">
                <g id="Group" transform="translate(0.695779, 0.000000)">
                    <path d="M280.945689,691.741791 L355.608535,703.221394 C366.37994,756.714778 413.637521,797 470.304221,797 C526.481243,797 573.411059,757.408009 584.712511,704.605186 L585.044047,703.001084 L620.220758,703.000465 C619.617369,704.84858 619.123064,706.748659 618.745567,708.693456 C614.853569,728.744351 624.254815,749.030968 642.069031,759.022332 C634.139815,776.224212 623.674482,792.136412 611.024512,806.22834 L610.197915,807.143095 L609.731874,806.788705 C602.447119,801.310061 593.948957,798.185715 585.27462,797.448969 C594.414909,810.255771 609.363045,817.718822 625.171382,817.260639 C635.256809,816.968327 644.806256,813.477592 652.57612,807.531266 L652.506436,847.219608 C598.884469,857.8105 558.404837,905.048478 558.304217,961.792921 C558.190037,1026.41014 610.479927,1078.88545 675.097141,1079 C675.506551,1079.00072 675.915473,1078.99934 676.323897,1078.99587 L677.304221,1079 C733.481243,1079 780.411059,1039.40801 791.712511,986.605186 L792.044047,985.001084 L863.322547,985.000518 C862.138275,994.639203 860.212452,1004.18512 857.556404,1013.55249 L857.138,1015.002 L856.565032,1014.88729 C836.953233,1011.09443 817.06026,1020.01839 806.851359,1037.18878 L806.541877,1037.71698 C796.327357,1055.40905 798.602421,1077.65578 812.186495,1092.91295 C798.813279,1106.91607 783.365665,1118.77869 766.38561,1128.08461 C757.367262,1114.34313 741.866735,1106.26317 725.43706,1106.73936 C709.007385,1107.21555 694.000098,1116.17974 685.791526,1130.42052 C682.092566,1136.82729 679.939593,1144.00879 679.503862,1151.39378 C660.146206,1151.82549 640.837465,1149.27674 622.255057,1143.83695 C626.402869,1123.83172 617.255078,1103.42202 599.562372,1093.20713 C581.869665,1082.99224 559.620448,1085.27487 544.369319,1098.8696 C530.366467,1085.49724 518.504734,1070.04965 509.200514,1053.06909 C526.293773,1041.86003 534.267695,1020.94927 528.977823,1001.20523 C523.68795,981.461178 506.328,967.339294 485.920831,966.179445 C485.482347,946.820909 488.032021,927.510412 493.479947,908.928881 C513.481417,913.113663 533.906133,903.960607 544.095115,886.246388 C554.340011,868.56093 552.058644,846.294527 538.440347,831.055184 C551.158069,817.735668 565.757578,806.357854 581.769892,797.281703 C572.570691,797.181586 563.32991,799.754716 555.273191,805.040111 L554.763485,805.379183 C537.827043,816.802956 530.119529,837.795514 535.640515,857.463426 C517.482181,864.186922 498.397729,868.077183 479.056708,868.997725 C476.97494,852.693577 466.585181,838.636373 451.609538,831.862076 C436.633895,825.087779 419.215793,826.565976 405.595229,835.767107 C399.462083,839.903955 394.378844,845.414839 390.749846,851.861409 C373.162051,843.76359 356.924767,833.008395 342.607655,819.973155 C355.105398,803.810857 355.830443,781.456609 344.406257,764.519556 C332.98207,747.582503 311.983965,739.880705 292.316807,745.413907 C285.93064,728.167784 282.10127,710.085734 280.945689,691.741791 Z M698.637814,773.999199 C708.677954,775.248923 718.615833,777.307855 728.353385,780.16305 C724.184526,800.169885 733.339364,820.590543 751.049054,830.787702 C768.729195,841.033665 790.993589,838.747065 806.223189,825.121202 C820.231067,838.489045 832.093432,853.937462 841.391994,870.921709 C824.324566,882.14229 816.37273,903.04076 821.664359,922.768525 C823.273331,928.766946 825.996467,934.2462 829.580688,939.00035 L792.044247,938.999918 C782.722284,892.23637 745.526474,855.524481 698.509351,846.916788 L698.637814,773.999199 Z M460.943292,490.591095 C463.02506,506.895243 473.414819,520.952447 488.390462,527.726744 C503.366105,534.501041 520.784207,533.022844 534.404771,523.821713 C540.537917,519.684866 545.621156,514.173982 549.250154,507.727411 C566.842094,515.817789 583.080468,526.573706 597.392345,539.615665 C584.87498,555.770182 584.151467,578.137365 595.598691,595.065927 C606.997962,612.025402 628.011445,619.730287 647.672904,614.15966 C652.803005,627.998933 656.282698,642.37827 658.051235,656.999604 L585.044247,656.999918 C574.358782,603.396372 527.049041,563 470.304221,563 C414.811285,563 368.341713,601.633613 356.324597,653.471748 L321.745264,648.156338 C324.325979,629.001601 314.975862,610.066075 297.951189,600.530657 C306.043305,582.939101 316.800102,566.700645 329.842272,552.387889 C345.984987,564.917214 368.355036,565.644108 385.278235,554.189228 C402.23908,542.784711 409.94955,521.771715 404.389994,502.104816 C422.537426,495.383222 441.612603,491.499696 460.943292,490.591095 Z M698.503969,208.864915 C717.734962,211.123113 736.502336,216.334664 754.143926,224.315691 C747.231225,243.547628 753.454963,265.043661 769.573133,277.606294 C785.65525,290.213145 808.021201,291.047403 824.998941,279.673696 C837.010052,294.860964 846.606969,311.809959 853.451287,329.923027 C836.518141,337.935239 826.045016,355.075915 826.350161,373.500489 L791.544247,373.499918 C780.858782,319.896372 733.549041,279.5 676.804221,279.5 C644.381473,279.5 615.039023,292.688323 593.84873,313.993108 C572.562801,335.13809 559.361704,364.418285 559.304404,396.792921 C559.204976,452.96979 598.713753,499.969564 651.4964,511.364523 L653.09991,511.698899 L652.969936,584.997875 C634.137066,582.662386 615.761833,577.500449 598.464515,569.684309 C605.35615,550.451035 599.137867,528.96683 583.038983,516.389003 C566.940098,503.811176 544.589728,502.975102 527.595002,514.314976 C515.589497,499.123938 505.993091,482.175845 499.142656,464.065645 C517.629565,455.344589 528.4361,435.747093 525.945548,415.458985 C523.454997,395.170877 508.229378,378.770388 488.182231,374.781697 C490.442202,355.550532 495.654564,336.78281 503.63552,319.140318 C522.859929,326.06804 544.359732,319.846632 556.914899,303.722839 C569.521431,287.635308 570.361151,265.268095 558.996292,248.28176 C574.17844,236.28128 591.119935,226.693273 609.22374,219.855631 C616.241877,234.718496 630.467041,244.877079 646.803097,246.69209 C663.139153,248.507101 679.247963,241.718763 689.358584,228.758982 C693.913196,222.929359 697.044687,216.11739 698.503969,208.864915 Z M864.395846,419.501194 C862.100955,438.61649 856.903072,457.270572 848.981079,474.819356 L848.992231,474.791915 L848.440526,474.599228 C829.547452,468.113836 808.606101,474.182384 796.106895,489.764875 L795.726914,490.244859 C783.149542,506.343162 782.306317,528.690024 793.634806,545.689241 C778.442878,557.694899 761.494642,567.292177 743.384702,574.144369 C736.366564,559.281504 722.141401,549.122921 705.805345,547.30791 C703.540372,547.056261 701.279767,546.969998 699.038912,547.04264 L699.101187,511.780554 C722.094972,507.239215 742.672176,495.959204 758.685197,480.080549 L759.283541,479.482948 C775.230194,463.632498 786.63389,443.216302 791.369588,420.359359 L791.544047,419.501084 L864.395846,419.501194 Z" id="Combined-Shape" fill="#000000" fill-rule="nonzero"></path>
                    <g id="Group-Copy" transform="translate(0.304221, 0.000000)">
                        <path id="Line" d="M676.092035,345.000081 C704.810797,345.050911 728.050748,368.373273 727.999919,397.092035 C727.955143,422.390206 709.852278,443.436966 685.909868,448.056944 L685.090538,910.978455 C709.016444,915.683156 727.044694,936.793864 726.999919,962.092035 C726.949089,990.810797 703.626727,1014.05075 674.907965,1013.99992 C646.189203,1013.94909 622.949252,990.626727 623.000081,961.907965 C623.044857,936.609794 641.147722,915.563034 665.090132,910.943056 L665.909462,448.021545 C641.983556,443.316844 623.955306,422.206136 624.000081,396.907965 C624.050911,368.189203 647.373273,344.949252 676.092035,345.000081 Z M643.00005,961.943363 C642.96877,979.616447 657.270279,993.96867 674.943363,993.99995 C692.616447,994.03123 706.96867,979.729721 706.99995,962.056637 C707.030787,944.633726 693.131742,930.438324 675.805098,930.009956 L674.300141,930.007477 C656.975798,930.378695 643.030882,944.523135 643.00005,961.943363 Z M676.056637,365.00005 C658.383553,364.96877 644.03133,379.270279 644.00005,396.943363 C643.969213,414.366274 657.868258,428.561676 675.194902,428.990044 L676.699859,428.992523 C694.024202,428.621305 707.969118,414.476865 707.99995,397.056637 C708.03123,379.383553 693.729721,365.03133 676.056637,365.00005 Z" fill="#000000" fill-rule="nonzero"></path>
                        <path id="Line-3" d="M994.5,344.5 C1023.21881,344.5 1046.5,367.781193 1046.5,396.5 C1046.5,425.218807 1023.21881,448.5 994.5,448.5 C969.201789,448.5 948.123022,430.434414 943.460676,406.500219 L727.539324,406.500219 C722.876978,430.434414 701.798211,448.5 676.5,448.5 C647.781193,448.5 624.5,425.218807 624.5,396.5 C624.5,367.781193 647.781193,344.5 676.5,344.5 C701.798562,344.5 722.877564,362.566088 727.539519,386.500779 L943.460481,386.500779 C948.122436,362.566088 969.201438,344.5 994.5,344.5 Z M676.5,364.5 C658.826888,364.5 644.5,378.826888 644.5,396.5 C644.5,414.173112 658.826888,428.5 676.5,428.5 C694.173112,428.5 708.5,414.173112 708.5,396.5 C708.5,378.826888 694.173112,364.5 676.5,364.5 Z M994.5,364.5 C976.826888,364.5 962.5,378.826888 962.5,396.5 C962.5,414.173112 976.826888,428.5 994.5,428.5 C1012.17311,428.5 1026.5,414.173112 1026.5,396.5 C1026.5,378.826888 1012.17311,364.5 994.5,364.5 Z" fill="#000000" fill-rule="nonzero"></path>
                        <path id="Line-3-Copy" d="M995,910 C1023.71881,910 1047,933.281193 1047,962 C1047,990.718807 1023.71881,1014 995,1014 C969.701789,1014 948.623022,995.934414 943.960676,972.000219 L728.039324,972.000219 C723.376978,995.934414 702.298211,1014 677,1014 C648.281193,1014 625,990.718807 625,962 C625,933.281193 648.281193,910 677,910 C702.298562,910 723.377564,928.066088 728.039519,952.000779 L943.960481,952.000779 C948.622436,928.066088 969.701438,910 995,910 Z M677,930 C659.326888,930 645,944.326888 645,962 C645,979.673112 659.326888,994 677,994 C694.673112,994 709,979.673112 709,962 C709,944.326888 694.673112,930 677,930 Z M995,930 C977.326888,930 963,944.326888 963,962 C963,979.673112 977.326888,994 995,994 C1012.67311,994 1027,979.673112 1027,962 C1027,944.326888 1012.67311,930 995,930 Z" fill="#000000" fill-rule="nonzero"></path>
                        <path id="Line-3-Copy-2" d="M788,628 C816.718807,628 840,651.281193 840,680 C840,708.718807 816.718807,732 788,732 C762.701789,732 741.623022,713.934414 736.960676,690.000219 L521.039324,690.000219 C516.376978,713.934414 495.298211,732 470,732 C441.281193,732 418,708.718807 418,680 C418,651.281193 441.281193,628 470,628 C495.298562,628 516.377564,646.066088 521.039519,670.000779 L736.960481,670.000779 C741.622436,646.066088 762.701438,628 788,628 Z M470,648 C452.326888,648 438,662.326888 438,680 C438,697.673112 452.326888,712 470,712 C487.673112,712 502,697.673112 502,680 C502,662.326888 487.673112,648 470,648 Z M788,648 C770.326888,648 756,662.326888 756,680 C756,697.673112 770.326888,712 788,712 C805.673112,712 820,697.673112 820,680 C820,662.326888 805.673112,648 788,648 Z" fill="#000000" fill-rule="nonzero"></path>
                        <g id="Group-3" transform="translate(0.500000, 79.500372)">
                            <path id="Line-4" d="M464.459622,24.9963015 L468.770222,25.0000321 L478.77019,25.0253859 L478.719482,45.0253216 L468.719514,44.9999679 C328.264784,44.6438609 223.416807,67.558341 154.19882,113.292013 C85.9660924,158.374705 52,225.873116 52,316.958646 C52,487.770628 172.816972,578.218983 419.176243,588.929162 C424.214817,565.718602 444.701458,548.382679 469.168852,548.006101 L470.025628,547.999862 L470.885537,548.007541 C499.600179,548.496609 522.481528,572.170894 521.992459,600.885537 C521.503391,629.600179 497.829106,652.481528 469.114463,651.992459 C443.74846,651.560425 422.93455,633.035481 418.762118,608.925962 C162.498484,597.85706 32,500.324564 32,316.958646 C32,219.350437 69.1580523,145.50887 143.173614,96.6053467 C214.74331,49.3178544 320.401593,25.5933632 460.170332,25.0070235 L464.459622,24.9963015 Z M438.200315,596.405325 L438.027269,601.344093 C438.718452,618.15241 452.418348,631.70519 469.455054,631.99536 C487.125604,632.296325 501.694394,618.215495 501.99536,600.544946 C502.296325,582.874396 488.215495,568.305606 470.544946,568.00464 C453.903868,567.721209 440.013665,580.192644 438.200315,596.405325 Z" fill="#000000" fill-rule="nonzero"></path>
                            <path d="M433.114264,599.999628 C159.537741,600.372366 22.7494791,503.37311 22.7494791,309.00186 C22.7494791,114.63061 171.398968,17.6314154 468.697947,18.0042768" id="Line-4-Copy" stroke="#000000" stroke-width="28"></path>
                            <path id="Line-4-Copy-2" d="M464.060573,-10.0039292 L468.679065,-9.99996848 L478.679033,-9.97486253 L478.628821,10.0250744 L468.628853,9.99996848 C317.856884,9.62143995 205.265868,33.987627 130.888415,82.64989 C57.5203618,130.651741 21,202.516657 21,299.425111 C21,482.015795 152.118256,578.371882 419.159518,589.015625 C424.157017,565.790393 444.624631,548.4172 469.098236,548.007278 L469.955003,547.999875 L470.814922,548.006386 C499.530202,548.456455 522.443683,572.099641 521.993614,600.814922 C521.543545,629.530202 497.900359,652.443683 469.185078,651.993614 C443.825284,651.596137 422.990588,633.109247 418.77766,609.014846 C141.863989,598.039391 1,494.668103 1,299.425111 C1,195.950833 40.7552981,117.720197 119.938565,65.9136781 C196.548953,15.7904929 309.714181,-9.37083497 459.464938,-9.99256172 L464.060573,-10.0039292 Z M438.17851,596.605496 L438.026712,601.329505 C438.711581,618.163726 452.441828,631.728732 469.49851,631.99607 C487.169451,632.273036 501.719105,618.172432 501.99607,600.50149 C502.273036,582.830549 488.172432,568.280895 470.50149,568.00393 C453.806381,567.742259 439.897348,580.314073 438.17851,596.605496 Z" fill="#000000" fill-rule="nonzero"></path>
                            <path d="M433.114264,600 C144.371421,600 0,499.80837 0,299.425111 C0,99.0423787 156.539589,-0.765991562 469.618768,0" id="Line-4-Copy-3" stroke="#000000" stroke-width="3" stroke-linecap="square"></path>
                        </g>
                        <g id="Group-4" transform="translate(0.003333, -0.000000)" fill="#000000">
                            <path d="M105.996667,184 C133.200977,178.253135 154.519531,178.253135 169.95233,184 C196.124088,193.745839 245.652851,185.26221 270.116829,184 C307.586068,182.066788 332.468717,177.960402 344.764776,171.680844 L338.94226,184 C319.147791,188.102686 306.332593,193.461803 300.496667,200.07735 C294.66074,206.692898 311.827407,212.333781 351.996667,217 L324.477361,223.62176 C284.155534,217.616337 262.082426,215.409084 258.258038,217 C246.7086,221.804477 286.256118,245.627531 280.894222,246.697513 C276.853633,247.503825 273.261168,247.905257 270.116829,247.901809 C259.15071,247.889787 234.512197,214.511913 227.217043,214.862945 C163.780868,217.915402 123.374076,228.928357 105.996667,247.901809 C79.1132212,277.254388 79.1132212,255.953784 105.996667,184 Z" id="Rectangle"></path>
                            <path d="M476.996667,69.5 C562.990559,65.4295581 616.875367,60.6563646 638.651092,55.1804195 C671.314679,46.9665019 684.090987,16.4960654 696.269734,15.7197568 C708.448481,14.9434482 724.615807,10.5526172 728.438541,9.77630858 C730.98703,9.25876953 733.571311,6 736.191385,0 L762.449684,0 C766.666249,0 769.952492,3 772.308413,9 C775.842293,18 913.367361,30.0108941 928.845719,25.5359401 C939.164624,22.5526375 949.465502,14.0406574 959.748352,0 L970.326837,0 C956.592898,16.4191923 953.066736,27.5759488 959.748352,33.4702697 C966.429968,39.3645905 996.846073,43.8633346 1050.99667,46.9665019 L1050.99667,55.1804195 C994.046593,52.0639738 938.712954,49.3956721 884.995749,47.1755143 C804.419941,43.8452776 744.771267,38.272127 722.176433,42.7238207 C699.581599,47.1755143 678.257072,64.6916432 683.304087,69.5 C686.668763,72.7055712 708.994609,72.7055712 750.281622,69.5 L762.449684,79.5003724 C735.22632,77.3601424 688.274869,81.1538696 621.595331,90.8815539 C594.06896,94.8972962 573.602092,109.980719 552.374326,114.500372 C532.244918,118.786171 507.119032,122.11938 476.996667,124.5 L476.996667,69.5 Z" id="Rectangle"></path>
                            <path d="M5.18256356,276.533375 C7.98678438,271.959547 18,271 27.5,262.118457 C33.8333333,256.197429 30.6666667,273.157943 18,313 L6.05737682e-13,313 C1.58556183,291.738136 3.31308302,279.582595 5.18256356,276.533375 Z" id="Rectangle"></path>
                            <path d="M460.146724,126.679997 C562.159571,106.341157 623.133512,102.077444 643.068546,113.888857 C648.107266,116.874275 690.822593,123.830711 698.967863,123.261139 C718.130623,121.921148 798.85691,123.060767 941.146724,126.679997 L949.293488,135.205444 L858.758028,137.884518 C835.928733,141.915419 841.97698,148.674389 876.902771,158.161429 C883.934791,160.071566 878.617738,163.769167 860.951612,169.254232 C839.749857,160.591527 824.682768,156.572483 815.750343,157.197099 C802.351706,158.134023 781.635406,145.972068 736.324536,144.931996 C714.371201,144.428076 676.711673,144.67816 623.345952,145.682248 C612.584494,145.884728 594.208633,154.457947 576.844067,156.909078 C562.87911,158.88033 551.143445,154.77949 532.565556,155.250775 C520.041453,155.568487 505.65103,148.482838 491.116713,148.863034 C484.542916,149.034994 474.219586,149.307315 460.146724,149.679997 L460.146724,126.679997 Z" id="Rectangle" transform="translate(704.720106, 138.317072) rotate(10.000000) translate(-704.720106, -138.317072) "></path>
                        </g>
                    </g>
                </g>
            </g>
        </g>
    </g>
</svg>