<?xml version="1.0" encoding="UTF-8"?>
<svg width="330px" height="388px" viewBox="0 0 330 388" version="1.1" xmlns="http://www.w3.org/2000/svg" xmlns:xlink="http://www.w3.org/1999/xlink">
    <title>Picture1</title>
    <g id="Home" stroke="none" stroke-width="1" fill="none" fill-rule="evenodd">
        <g id="Desktop-HD" transform="translate(-905.000000, -157.000000)">
            <g id="Picture1" transform="translate(905.000000, 157.000000)">
                <g id="icon---tree" transform="translate(9.611650, 8.538511)">
                    <path d="M46.2165848,94.0874887 C46.2165848,93.2726887 53.3989377,106.348289 53.3989377,106.348289 C53.7108049,105.350325 53.7108049,104.281053 53.3989377,103.283089 C50.3631861,97.2910633 47.7680878,91.0860535 45.6342319,84.7172887 C45.5673548,41.2494489 78.8594178,4.99081552 122.199136,1.32988195 C165.538855,-2.33105163 204.448127,27.8286891 211.682467,70.6910887 C212.225997,73.7950887 193.280114,79.9254887 195.376585,84.7172887 C196.191879,83.5726887 198.016585,77.4034887 219.932467,70.6910887 C287.252467,62.5430887 304.063055,107.725689 304.063055,145.458689 C304.063055,183.205253 273.444863,213.804907 235.675408,213.804907 L60.969526,213.804907 C30.2477527,213.828808 4.33563363,190.944027 0.580411858,160.471094 C-3.17480991,129.998161 16.4070297,101.51389 46.2165848,94.0874887 Z" id="primary" stroke="#0A6000" stroke-width="18.1764706"></path>
                    <path d="M291.639526,148.873089 C289.69835,147.243489 279.46835,155.566089 277.294232,152.753089 C275.120114,149.940089 286.204232,136.418289 282.962467,137.543489 C279.720702,138.668689 279.875997,148.717889 268.306585,156.943489 C256.737173,165.169089 241.30482,172.599289 236.68482,170.523489 C232.06482,168.447689 248.855997,152.597889 249.826585,148.795489 C250.797173,144.993089 243.867173,154.615489 240.586585,152.675489 C237.305997,150.735489 237.67482,140.317689 236.704232,141.268289 C237.19079,147.979948 236.244596,154.718319 233.92835,161.036889 C229.30835,169.359489 232.60835,166.662889 218.224232,174.616889 C215.312467,176.207689 186.815997,191.785889 181.924232,185.810689 C177.032467,179.835489 182.487173,171.726289 190.407173,161.133889 C198.327173,150.541489 214.380702,145.419889 213.565408,143.402289 L206.499526,142.956089 L206.499526,132.557689 L200.26835,143.402289 C198.987173,143.285889 196.618938,144.973689 193.396585,147.825489 C189.19929,144.612343 185.34796,140.971401 181.90482,136.961489 C181.691291,136.728689 182.44835,125.767689 181.90482,125.321489 C181.361291,124.875289 178.798938,133.896289 177.537173,132.635289 C173.305408,128.406089 169.423055,124.758889 168.840702,125.321489 C167.850702,126.272089 184.952467,141.074289 183.845997,152.850089 C182.739526,164.625889 164.434232,172.444089 164.434232,172.444089 C158.112135,176.531865 150.96832,179.181024 143.50835,180.204089 C125.734851,163.545061 110.54927,144.327753 98.4536436,123.187489 C96.9464745,118.928404 96.5261395,114.360865 97.2307025,109.898489 C97.9683495,108.268889 109.537761,101.478889 110.236585,99.5582887 L105.053644,100.508889 L102.70482,92.9428887 L100.045408,101.595289 C99.7542319,100.082089 92.1448201,107.725689 91.6401142,106.018489 C89.5242319,106.484089 90.669526,106.290089 89.7959966,102.138489 C88.9224672,97.9868887 91.737173,94.3784887 90.9607025,93.7382887 C90.1842319,93.0980887 88.8059966,96.8810887 88.2818789,96.5512887 C87.7577613,96.2214887 86.5348201,87.6466887 86.5348201,91.7594887 C86.5348201,95.8722887 88.4759966,104.330689 88.2818789,113.099489 C88.0877613,121.868289 113.051291,179.117689 110.29482,178.749089 C96.7065848,185.403289 64.9877613,161.599489 57.3977613,153.820089 C49.8077613,146.040689 54.6218789,142.180089 54.5248201,136.922689 C54.5248201,133.702289 51.1277613,135.797489 50.3318789,135.564689 L44.1977613,129.744689 L42.9942319,117.386889 L39.9465848,125.728889 L34.5889377,120.762489 L48.177173,141.345889 L44.6054083,151.336889 C39.8107025,149.959489 37.4424672,149.396889 38.4518789,150.696689 C39.4769086,151.79392 40.5589924,152.836495 41.6936436,153.820089 C42.7807025,154.809489 9.02364363,166.546489 11.1977613,168.447689 C14.2821621,168.227765 17.3377787,167.707975 20.3212907,166.895689 C21.0007025,166.759889 15.7983495,173.743889 16.9630554,173.491689 C18.030344,172.928844 19.0163774,172.224029 19.8942319,171.396489 C20.2436436,171.105489 21.0589377,175.606289 21.9324672,174.869089 C22.2430554,174.616889 22.6312907,169.049089 23.3883495,168.505889 C24.1454083,167.962689 24.8636436,167.303089 25.9312907,166.565889 C26.6277183,165.993109 27.4150338,165.540676 28.2607025,165.227289 C37.9665848,163.132089 38.4324672,155.527289 50.2348201,161.347289 C63.4394332,170.305065 75.6821435,180.602993 86.7677613,192.076889 C100.903331,198.511549 112.154251,209.949157 118.350702,224.183889 C119.619127,227.733577 120.275507,231.472675 120.291879,235.241889 L120.291879,300.445289 C120.291879,300.445289 120.951879,316.236889 96.0465848,330.961489 C71.1412907,345.686089 27.4648201,352.010489 20.6707025,359.382489 C25.3942319,360.287822 30.0336436,361.348355 34.5889377,362.564089 C72.0682722,372.170944 111.36725,372.170944 148.846585,362.564089 C186.325919,352.957233 225.624897,352.957233 263.104232,362.564089 C269.548938,364.290689 276.207173,365.706889 282.981879,366.812689 C275.974232,356.608289 232.899526,347.548489 206.518938,330.961489 C180.13835,314.374489 177.401291,300.445289 177.401291,300.445289 L177.401291,235.241889 C179.735789,215.785823 192.599028,199.194547 210.867173,192.076889 C210.867173,192.076889 293.600114,150.580289 291.639526,148.873089 Z" id="secondary" fill="#127805" fill-rule="nonzero"></path>
                </g>
            </g>
        </g>
    </g>
</svg>