<?xml version="1.0" encoding="UTF-8"?>
<svg width="1440px" height="1440px" viewBox="0 0 1440 1440" version="1.1" xmlns="http://www.w3.org/2000/svg" xmlns:xlink="http://www.w3.org/1999/xlink">
    <title>3D Work</title>
    <g id="3D-Work" stroke="none" stroke-width="1" fill="none" fill-rule="evenodd">
        <rect id="Rectangle" fill="#000000" x="609" y="657" width="437" height="27"></rect>
        <path d="M1059,600 L1059,742 L348,742 L348,600 L1059,600 Z M990,632 L622,632 C600.460895,632 583,649.460895 583,671 C583,692.539105 600.460895,710 622,710 L622,710 L990,710 C1011.53911,710 1029,692.539105 1029,671 C1029,649.460895 1011.53911,632 990,632 L990,632 Z" id="Combined-Shape" fill="#2F2F2F"></path>
        <rect id="Rectangle-Copy-6" fill="#F2F2F2" x="593" y="690" width="453" height="11"></rect>
        <rect id="Rectangle" fill="#F2F2F2" x="593" y="640" width="453" height="11"></rect>
        <rect id="Rectangle-Copy" fill="#BCBCBC" x="639" y="990" width="392" height="152"></rect>
        <path d="M639,233 L639,721 L333,721 L333,248.495593 L333,248.495593 C333,233.619824 359.7264,233.024793 377.806682,233.000992 L639,233 L639,233 Z M362,270 L336,270 L336,720 L362,720 L362,270 Z" id="Combined-Shape" fill="#BCBCBC"></path>
        <path d="M639,720 L639,931 L333,931 L333,720 L639,720 Z M610,742 L362,742 L362,910 L610,910 L610,742 Z" id="Combined-Shape" stroke="#979797" fill="#F2F2F2"></path>
        <path d="M639,931 L639,1142 L333,1142 L333,931 L639,931 Z M486.5,978 C454.191342,978 428,1004.19134 428,1036.5 C428,1068.80866 454.191342,1095 486.5,1095 C518.808658,1095 545,1068.80866 545,1036.5 C545,1004.19134 518.808658,978 486.5,978 Z M486.5,986 C514.39038,986 537,1008.60962 537,1036.5 C537,1064.39038 514.39038,1087 486.5,1087 C458.60962,1087 436,1064.39038 436,1036.5 C436,1008.60962 458.60962,986 486.5,986 Z" id="Combined-Shape" stroke="#979797" fill="#F2F2F2"></path>
        <rect id="Rectangle" fill="#2F2F2F" x="682" y="940" width="349" height="47"></rect>
        <rect id="Rectangle-Copy-12" fill="#2F2F2F" x="639" y="1018" width="184" height="99"></rect>
        <polygon id="Rectangle-Copy-9" fill="#2F2F2F" points="126 733 333 733 333 780 164.230759 780 126 756.5"></polygon>
        <rect id="Rectangle-Copy-7" fill="#2F2F2F" x="682" y="921" width="349" height="11"></rect>
        <path d="M859,615 L986,615 L986,742 L987,742 L937,780 L909,780 L859,742 L859,615 Z" id="Combined-Shape" fill="#000000"></path>
        <path d="M961,620 C971.49341,620 980,628.50659 980,639 L980,715 C980,725.49341 971.49341,734 961,734 L885,734 C874.50659,734 866,725.49341 866,715 L866,639 C866,628.50659 874.50659,620 885,620 L961,620 Z M925.503051,632.068438 L934.544304,650.388788 C931.006726,648.852024 927.102864,648 923,648 C918.897285,648 914.993556,648.851963 911.45608,650.388622 L920.496949,632.068438 C902.465343,633.057019 887.261371,644.661259 881.028115,660.738075 L901.268197,657.797176 C896.745227,662.911945 894,669.635381 894,677 C894,677.930988 894.04387,678.851729 894.129655,679.760269 L879.486435,665.48627 C878.516613,669.161249 878,673.020294 878,677 C878,691.068086 884.455551,703.628398 894.565934,711.880216 L898.020194,691.74023 C902.04072,698.539015 908.757797,703.554212 916.699207,705.313602 L898.609374,714.823055 C905.636778,719.364106 914.010566,722 923,722 C931.989434,722 940.363222,719.364106 947.390626,714.823055 L929.300793,705.313602 C937.242592,703.554126 943.959938,698.538524 947.980397,691.739231 L951.435068,711.879398 C961.544875,703.627568 968,691.067622 968,677 C968,673.020656 967.483481,669.161951 966.51383,665.487272 L951.870251,679.761267 C951.956098,678.852403 952,677.931328 952,677 C952,669.635381 949.254773,662.911945 944.731803,657.797176 L964.971885,660.738075 C958.738629,644.661259 943.534657,633.057019 925.503051,632.068438 Z" id="Combined-Shape" fill="#2F2F2F"></path>
        <polygon id="Triangle" fill="#F2F2F2" transform="translate(923.000000, 785.500000) scale(1, -1) translate(-923.000000, -785.500000) " points="923 780 929 791 917 791"></polygon>
        <rect id="Rectangle" fill="#F2F2F2" x="899" y="610" width="47" height="5"></rect>
        <rect id="Rectangle" fill="#000000" x="691" y="932" width="7" height="8"></rect>
        <rect id="Rectangle-Copy-8" fill="#000000" x="1015" y="932" width="7" height="8"></rect>
        <path d="M198,430 L198,511 L296,511 L296,430 L314,430 L314,1084 L296,1084 L296,1003 L198,1003 L198,1084 L180,1084 L180,430 L198,430 Z" id="Combined-Shape" fill="#000000"></path>
        <rect id="Rectangle" fill="#2F2F2F" x="198" y="520" width="98" height="473" rx="19"></rect>
        <path d="M929.461905,610.537914 L913.462086,610.461905 C924.162763,412.111155 889.860024,296.612374 810.55387,263.965561 C691.594639,214.995341 333,192.846803 314,246.308351 C301.333333,281.949383 279,370.013266 247,510.5 L239.5,511 C267.554518,375.514837 289.437445,282.895087 305.14878,233.140752 C325.011541,185.968109 736.985472,222.135465 819.076911,256.677661 C902.310186,291.700314 939.105184,409.653732 929.461905,610.537914 Z" id="Path" fill="#2F2F2F" fill-rule="nonzero"></path>
        <path d="M493,166 L493,182 L475,182 L475,206 L462,206 L462,182 L445,182 L445,166 L493,166 Z" id="Combined-Shape" fill="#F2F2F2"></path>
        <rect id="Rectangle" fill="#000000" x="417" y="196" width="151" height="37"></rect>
    </g>
</svg>