<?xml version="1.0" encoding="UTF-8"?>
<svg width="383px" height="262px" viewBox="0 0 383 262" version="1.1" xmlns="http://www.w3.org/2000/svg" xmlns:xlink="http://www.w3.org/1999/xlink">
    <title>Group 2</title>
    <g id="Home" stroke="none" stroke-width="1" fill="none" fill-rule="evenodd">
        <g id="Tinkering" transform="translate(-621.000000, -940.000000)">
            <g id="Group-2" transform="translate(621.000000, 940.618227)">
                <rect id="Rectangle" fill="#7B7B7B" x="0" y="152.381773" width="383" height="108" rx="34.5"></rect>
                <path d="M197.66268,8.52651283e-14 L202,31 L242,31 L242,55.1502463 L343,55.1502463 C365.09139,55.1502463 383,73.0588563 383,95.1502463 L383,191.381773 C383,213.473163 365.09139,231.381773 343,231.381773 L40,231.381773 C17.90861,231.381773 2.705415e-15,213.473163 0,191.381773 L0,95.1502463 C-2.705415e-15,73.0588563 17.90861,55.1502463 40,55.1502463 L142,55.1502463 L142,31 L180,31 L184.453888,8.52651283e-14 L197.66268,8.52651283e-14 Z M283,156.320197 L101,156.320197 L101,198.093596 L283,198.093596 L283,156.320197 Z M78,86.3817734 C53.1471863,86.3817734 33,99.5893733 33,115.881773 C33,132.174174 53.1471863,145.381773 78,145.381773 C102.852814,145.381773 123,132.174174 123,115.881773 C123,99.5893733 102.852814,86.3817734 78,86.3817734 Z M305,86.4802956 C280.147186,86.4802956 260,99.6305526 260,115.852217 C260,132.073881 280.147186,145.224138 305,145.224138 C329.852814,145.224138 350,132.073881 350,115.852217 C350,99.6305526 329.852814,86.4802956 305,86.4802956 Z" id="Combined-Shape" fill="#292929"></path>
                <ellipse id="Oval-Copy-5" fill="#7B7B7B" cx="77" cy="82.8817734" rx="21" ry="10.5"></ellipse>
                <ellipse id="Oval-Copy-6" fill="#7B7B7B" cx="307" cy="82.8817734" rx="21" ry="10.5"></ellipse>
                <rect id="Rectangle" fill="#7B7B7B" x="298" y="90.3817734" width="18" height="31"></rect>
                <path d="M68,90.3817734 C71,85.2151067 77,85.2151067 86,90.3817734 L86,121.381773 L68,121.381773 C65,105.881773 65,95.5484401 68,90.3817734 Z" id="Rectangle-Copy" fill="#7B7B7B"></path>
            </g>
        </g>
    </g>
</svg>