<svg xmlns="http://www.w3.org/2000/svg" width="728" height="157.803" viewBox="0 0 728 157.803">
  <g id="Group_10989" data-name="Group 10989" transform="translate(-128 -315.197)">
    <text id="Palettes" transform="translate(245 377)" fill="#2680c2" font-size="72" font-family="Ubuntu-Medium, Ubuntu" font-weight="500"><tspan x="29.416" y="67">UI Environments</tspan></text>
    <g id="Group_10916" data-name="Group 10916" transform="translate(68 68.197)">
      <path id="primary" d="M18.509,37.316c-.036-.327,2.886,4.925,2.886,4.925a2.063,2.063,0,0,0,0-1.235C20.744,39.7,18.3,34.3,18.3,33.55a33.553,33.553,0,0,1,66.63-5.629c.218,1.25-7.389,3.711-6.545,5.629.325-.456,1.063-2.936,9.852-5.629C115.255,24.645,122,42.79,122,57.95A27.45,27.45,0,0,1,94.55,85.4H24.4a24.4,24.4,0,0,1-5.891-48.084Z" transform="translate(65 252)" fill="none" stroke="#f7c948" stroke-width="10"/>
      <path id="secondary" d="M116.278-18.485c-.786-.654-4.888,2.684-5.76,1.544s3.573-6.558,2.273-6.107-1.239,4.49-5.883,7.813S96.071-8.946,94.216-9.758s4.882-7.2,5.272-8.727-2.393,2.3-3.711,1.544-1.171-4.962-1.561-4.58.744,4.6-1.11,7.942-.533,2.259-6.306,5.417c-1.166.638-12.608,6.893-14.566,4.494s.229-5.653,3.4-9.911,9.623-6.308,9.3-7.123L82.1-20.884v-4.177L79.6-20.7c-.514-.048-1.462.627-2.759,1.777-.185.164-2.244-1.952-4.61-4.362-.088-.09.217-4.492,0-4.712-.328-.333-1.247,3.445-1.755,2.938-1.7-1.7-3.258-3.161-3.491-2.938-.4.38,6.464,6.326,6.02,11.058s-7.794,7.871-7.794,7.871-5.707,3.468-8.4,3.124C54-6.307,39.106-26.893,38.736-28.841c-.072-.38-1.186-3.8-.491-5.338.3-.657,4.936-3.383,5.217-4.154l-2.079.38-.942-3.036-1.066,3.475c-.12-.611-3.174,2.464-3.376,1.777-.847.191-.389.108-.738-1.535s.8-3.094.465-3.374-.861,1.263-1.073,1.127-.7-3.579-.7-1.922.8,5.048.7,8.549S44.6-6.341,43.462-6.49C38-3.817,25.279-13.378,22.231-16.5s-1.117-4.643-1.152-6.789c-.021-1.292-1.364-.455-1.679-.548l-2.462-2.317-.485-4.959-1.226,3.349-2.138-2.012,5.48,8.263L17.134-17.5c-1.924-.551-2.877-.753-2.469-.258a17.192,17.192,0,0,0,1.3,1.257c.436.4-13.111,5.109-12.236,5.872a19.1,19.1,0,0,0,3.662-.621C7.662-11.3,5.579-8.5,6.045-8.6a5.358,5.358,0,0,0,1.177-.841c.143-.116.466,1.688.82,1.394.121-.1.282-2.309.582-2.555s.592-.48,1.019-.8a3.247,3.247,0,0,1,.938-.535c3.889-.842,4.081-3.889,8.818-1.558S34.059-1.149,34.059-1.149c6.553,3.5,10.918,7.958,12.673,12.893a13.38,13.38,0,0,1,.759,4.442V42.371s.267,6.338-9.729,12.256S10.239,63.083,7.509,66.044q2.845.547,5.588,1.279a92.286,92.286,0,0,0,45.858,0,92.286,92.286,0,0,1,45.858,0c2.587.691,5.255,1.259,7.977,1.7-2.811-4.1-20.1-7.735-30.69-14.4S70.42,42.371,70.42,42.371V16.187c0-6.5,4.831-12.738,13.432-17.336C83.851-1.149,117.064-17.831,116.278-18.485Z" transform="translate(65.735 329.807)" fill="#de911d"/>
    </g>
  </g>
</svg>
