<svg id="icon_-_trendsSquare" data-name="icon - trendsSquare" xmlns="http://www.w3.org/2000/svg" width="20" height="20" viewBox="0 0 20 20">
  <path id="secondary" d="M20,5.775V11.33a2.222,2.222,0,0,1-2.222,2.222H2.222A2.222,2.222,0,0,1,0,11.33V5.775H3.333a1.111,1.111,0,0,0,.924-.495L7.778,0,13.52,8.613a1.111,1.111,0,0,0,1.849,0l1.892-2.839Z" transform="translate(0 6.447)" fill="#164e55"/>
  <path id="primary" d="M20,10H16.667a1.111,1.111,0,0,0-.925.495l-1.3,1.947L8.7,3.828a1.111,1.111,0,0,0-1.849,0L2.739,10H0V2.222A2.222,2.222,0,0,1,2.222,0H17.778A2.222,2.222,0,0,1,20,2.222Z" transform="translate(0)" fill="#1b6c74"/>
</svg>
