<svg id="icon_-_target" data-name="icon - target" xmlns="http://www.w3.org/2000/svg" width="20" height="20" viewBox="0 0 20 20">
  <path id="primary" d="M0,10A10.006,10.006,0,0,1,13.225.532l-.346.346a3,3,0,0,0-.79,1.4,7.991,7.991,0,1,0,5.636,5.636,3,3,0,0,0,1.4-.789l.346-.347A10,10,0,1,1,0,10Zm4,0a6,6,0,0,1,7.555-5.8l-1.8,1.8a4,4,0,1,0,4.243,4.243l1.8-1.8A6,6,0,1,1,4,10Z" transform="translate(0 0)" fill="#164e55"/>
  <path id="secondary" d="M4.516,4.144V2.712a.9.9,0,0,1,.265-.639L6.587.266A.9.9,0,0,1,8.129.905v.9h.9A.9.9,0,0,1,9.671,3.35L7.864,5.157a.9.9,0,0,1-.639.265H5.793L1.542,9.673A.9.9,0,0,1,.265,8.4Z" transform="translate(10.063 0)" fill="#1b6c74"/>
</svg>
