<svg id="icon_-_sketch" data-name="icon - sketch" xmlns="http://www.w3.org/2000/svg" width="18.494" height="20" viewBox="0 0 18.494 20">
  <path id="primary" d="M0,8a.666.666,0,0,1,.2-.471L7.524.2a.666.666,0,0,1,.942,0l2,2a.666.666,0,0,1,0,.942L3.136,10.465a.666.666,0,0,1-.471.2h-2A.666.666,0,0,1,0,9.994Z" transform="translate(5.849 1.984)" fill="#1b6c74"/>
  <path id="primary-2" data-name="primary" d="M58.583.2a.666.666,0,0,1,.942,0l2,2a.666.666,0,0,1,0,.942c-.343.343.007,0-.946.943-.513.5-.916-.609-1.742-1.414-.691-.674-1.845-.938-1.315-1.4C58.584.207,58.583.2,58.583.2Z" transform="translate(-43.225)" fill="#1b6c74"/>
  <path id="Path" d="M1.574,2.148A3.4,3.4,0,0,0,.59,4.887,5.058,5.058,0,0,0,2.192,8.1c.942,1.1,2.535,1.333,2.486,3.854a6.227,6.227,0,0,1-1.871,4.615c-.631.491-2.365-1.391-2.654-2.929a2.313,2.313,0,0,1,.223-1.568c.211-.252.623.56.623.56,1.282,5.559,3.47.7,2.812-.678A4.834,4.834,0,0,0,1.871,9.5C.467,8.285,0,7.194,0,4.887A6.553,6.553,0,0,1,1.871.271c.642-.55.936-.094.936-.094A7.248,7.248,0,0,1,4.528,3.213,2.211,2.211,0,0,1,4.3,4.779c-.234.276-.512.023-.622-.565C3.549,3.506,2.2,1.378,1.574,2.148Z" transform="matrix(0.259, -0.966, 0.966, 0.259, 0, 15.692)" fill="#1b6c74"/>
</svg>
