<svg xmlns="http://www.w3.org/2000/svg" width="711" height="106.646" viewBox="0 0 711 106.646">
  <g id="Group_10988" data-name="Group 10988" transform="translate(-145 -373.354)">
    <text id="Palettes" transform="translate(245 384)" fill="#2680c2" font-size="72" font-family="Ubuntu-Bold, Ubuntu" font-weight="700"><tspan x="95.584" y="67">User Stories</tspan></text>
    <g id="icon_-_usersOutline" data-name="icon - usersOutline" transform="translate(148 376.354)">
      <path id="Subtraction_3" data-name="Subtraction 3" d="M150.7,77.96H116.641V69.6A34.892,34.892,0,0,0,106.5,44.964a27.177,27.177,0,0,1,44.2,21.2V77.959h0Zm-116.4,0H0V66.168A27.176,27.176,0,0,1,44.337,45.074,34.885,34.885,0,0,0,34.3,69.6v8.356Zm89.213-44.546a16.014,16.014,0,0,1-11.534-4.893,16.991,16.991,0,0,1,0-23.624,16.041,16.041,0,0,1,23.068,0,16.991,16.991,0,0,1,0,23.624A16.014,16.014,0,0,1,123.516,33.413Zm-96.331,0a16.014,16.014,0,0,1-11.534-4.893,16.991,16.991,0,0,1,0-23.624,16.041,16.041,0,0,1,23.068,0,16.991,16.991,0,0,1,0,23.624A16.014,16.014,0,0,1,27.185,33.413Z" transform="translate(0 13.233)" fill="none" stroke="#f7c948" stroke-width="6"/>
      <path id="Subtraction_4" data-name="Subtraction 4" d="M21.233,43.495C9.526,43.495,0,33.742,0,21.75S9.526,0,21.233,0,42.467,9.757,42.467,21.75,32.942,43.495,21.233,43.495ZM21.218,4.766A16.8,16.8,0,0,0,4.641,21.75,16.8,16.8,0,0,0,21.218,38.729,16.808,16.808,0,0,0,37.81,21.75,16.809,16.809,0,0,0,21.218,4.766Z" transform="translate(54.123)" fill="none" stroke="#de9125" stroke-width="6"/>
      <path id="Subtraction_2" data-name="Subtraction 2" d="M84.931,50.736H0V35A34.97,34.97,0,0,1,35,0H49.931a34.97,34.97,0,0,1,35,35V50.735ZM36.42.752a34.971,34.971,0,0,0-35,35V49.941H83.758V35.753a34.971,34.971,0,0,0-35-35Z" transform="translate(32.886 47.083)" fill="none" stroke="#de9125" stroke-width="6"/>
    </g>
  </g>
</svg>
